<svg width="64" height="64" viewBox="0 0 64 64" fill="none" xmlns="http://www.w3.org/2000/svg">
<mask id="mask0_11_220" style="mask-type:luminance" maskUnits="userSpaceOnUse" x="0" y="0" width="64" height="64">
<path d="M64 0H0V64H64V0Z" fill="white"/>
</mask>
<g mask="url(#mask0_11_220)">
<path d="M32 63.25H0.75V0.75H38.25M38.25 0.75L50.75 13.25M38.25 0.75V13.25H50.75M50.75 13.25V27.833M9.083 21.583H42.417M9.083 29.917H29.917M9.083 38.25H29.917M9.083 46.583H29.917M9.083 54.917H29.917M36.167 34.084V49.708C36.1516 51.4961 36.4905 53.2695 37.1642 54.9259C37.8378 56.5823 38.8328 58.0889 40.0918 59.3588C41.3508 60.6286 42.8488 61.6365 44.4993 62.3244C46.1499 63.0122 47.9204 63.3664 49.7085 63.3664C51.4967 63.3664 53.2671 63.0122 54.9177 62.3244C56.5682 61.6365 58.0662 60.6286 59.3252 59.3588C60.5842 58.0889 61.5792 56.5823 62.2528 54.9259C62.9265 53.2695 63.2654 51.4961 63.25 49.708V34.083L36.167 34.084Z" stroke="#19FFDB" stroke-width="1.5" stroke-miterlimit="10" stroke-linejoin="round"/>
</g>
</svg>
