<svg width="73" height="73" viewBox="0 0 73 73" fill="none" xmlns="http://www.w3.org/2000/svg">
<path d="M0 65.8656C7.90455 65.8656 15.7953 65.8656 23.6999 65.8656C24.2094 65.8656 24.5812 66.0036 24.9668 66.3486C28.1066 69.1775 31.6733 71.275 35.6531 72.6964C35.901 72.7792 36.1213 72.9034 36.3554 73H36.7823C38.1181 72.4204 39.4814 71.896 40.8034 71.2613C43.4475 69.9917 45.8712 68.3771 48.047 66.4038C48.4601 66.0312 48.8732 65.8656 49.4378 65.8656C57.2873 65.8794 65.1505 65.8656 73 65.8656V0H0V65.8656ZM37.223 70.2539C36.7548 70.4333 36.3416 70.4609 35.8596 70.2677C27.8862 67.149 22.1988 61.6843 18.8249 53.8185C17.3101 50.2858 16.5665 46.5737 16.539 42.7374C16.5114 38.8459 16.539 34.9406 16.539 31.0492C16.539 30.9112 16.5527 30.7732 16.5803 30.5524C23.9202 30.235 30.544 27.9718 36.3829 23.9009C38.545 25.0739 40.5556 26.2745 42.6763 27.2819C46.7938 29.2276 51.173 30.2626 55.7174 30.4834C56.3784 30.511 56.5437 30.718 56.5437 31.3527C56.5024 35.4926 56.5574 39.6187 56.4473 43.7586C56.3096 48.8783 54.7948 53.6115 52.1094 57.9584C48.5427 63.7267 43.5576 67.8113 37.223 70.2539ZM70.5625 63.4921H50.9664C51.2556 63.1195 51.4759 62.8435 51.7101 62.5537C55.1803 58.2758 57.3975 53.4321 58.3339 48.0089C58.6506 46.1459 58.8159 44.2416 58.8434 42.3372C58.9123 37.8248 58.871 33.3123 58.871 28.7998V28.1512C57.8381 28.1512 56.8466 28.1926 55.8551 28.1512C48.9008 27.7648 42.6625 25.4327 37.0853 21.2928C36.6308 20.9616 36.3692 20.9892 35.9423 21.3066C31.4529 24.6737 26.4403 26.8403 20.9181 27.751C18.9764 28.0684 16.9934 28.0822 15.0379 28.234C14.7763 28.2478 14.5284 28.234 14.2254 28.234C14.2117 28.4962 14.1841 28.7032 14.1841 28.924C14.2117 33.9885 14.1428 39.0529 14.2943 44.1036C14.4595 49.5958 16.1671 54.6879 19.0728 59.3384C19.8578 60.6079 20.8217 61.7671 21.6893 62.9815C21.7995 63.1333 21.8959 63.2851 22.0336 63.5059H2.46501V11.8125H70.5763V63.4921H70.5625ZM2.46501 2.40113H70.5763V9.36994H2.46501V2.40113Z" fill="#19FFDB"/>
<path d="M37.6361 14.1446H4.80609V16.4354H37.6361V14.1446Z" fill="#19FFDB"/>
<path d="M28.2305 18.8641H4.7923V21.1134H28.2305V18.8641Z" fill="#19FFDB"/>
<path d="M4.80609 25.8467H18.825V23.5559H4.80609V25.8467Z" fill="#19FFDB"/>
<path d="M4.81982 7.01019H7.0645V4.74705H4.81982V7.01019Z" fill="#19FFDB"/>
<path d="M9.52948 7.02399H11.7879V4.74705H9.52948V7.02399Z" fill="#19FFDB"/>
<path d="M14.1979 7.0102H16.4839V4.76086H14.1979V7.0102Z" fill="#19FFDB"/>
<path d="M54.1613 36.3344C54.1889 35.1752 54.1613 34.0161 54.1613 32.8155C53.8584 32.7603 53.638 32.7189 53.4314 32.6913C47.4962 32.0013 41.9878 30.0694 36.92 26.8955C36.562 26.6747 36.3279 26.7575 36.0387 26.9507C31.99 29.4622 27.6384 31.2285 22.9563 32.1531C21.6205 32.4153 20.2571 32.6085 18.8938 32.8293C18.8938 32.9949 18.8663 33.1053 18.8663 33.2295C18.8663 36.2516 18.8663 39.2599 18.8663 42.282C18.88 45.1662 19.2519 48.0089 20.1745 50.755C22.8736 58.8416 28.203 64.4994 36.0249 67.7975C36.3003 67.9217 36.7272 67.9079 37.0164 67.7975C42.0704 65.7276 46.1879 62.4847 49.3001 57.986C51.7927 54.3705 53.459 50.3962 53.8583 46.0079C54.1475 42.8064 54.0787 39.5635 54.1613 36.3344ZM51.5724 45.3317C51.1868 50.065 49.3139 54.2739 46.3807 57.986C43.8606 61.1737 40.7208 63.5886 37.0027 65.2308C36.7272 65.355 36.3003 65.355 36.0249 65.2308C28.561 61.7533 23.8101 55.9989 21.8683 47.9951C21.469 46.3667 21.3175 44.6694 21.2624 42.9858C21.166 40.3087 21.2349 37.6178 21.2349 35.0096C23.6448 34.3748 25.9859 33.8505 28.2719 33.1467C30.9847 32.3325 33.5461 31.1319 35.9836 29.6968C36.3554 29.476 36.6446 29.4622 37.0164 29.6968C41.4369 32.2635 46.1741 33.9333 51.2143 34.7612C51.5999 34.8302 51.8065 34.913 51.8065 35.3684C51.7376 38.6941 51.834 42.0336 51.5724 45.3317Z" fill="#19FFDB"/>
<path d="M42.8691 43.9794C42.4835 43.7724 42.3871 43.5516 42.3871 43.1514C42.3871 41.8405 42.456 40.5295 42.3045 39.2461C41.974 36.2792 39.4126 34.0161 36.3554 34.1541C32.954 34.3059 30.6818 36.8036 30.6405 40.1983C30.6405 41.2195 30.6542 42.2406 30.6267 43.2618C30.6267 43.4826 30.4477 43.8 30.2549 43.8966C28.9466 44.628 28.2994 45.7181 28.2856 47.2085C28.2856 50.2168 28.2581 53.2389 28.2856 56.2473C28.3132 58.5932 29.7729 59.987 32.114 60.0008C33.5874 60.0008 35.0609 60.0008 36.5344 60.0008C37.9804 60.0008 39.4263 60.0008 40.8723 60.0008C40.9136 60.0008 40.9687 60.0008 41.01 60.0008C43.2271 59.9456 44.7144 58.5104 44.7282 56.3577C44.7557 53.2665 44.7419 50.1892 44.7282 47.0981C44.7282 45.7043 44.0809 44.628 42.8553 43.9794H42.8691ZM33.2432 38.7769C33.7252 37.259 35.295 36.3482 36.9613 36.5138C38.5037 36.6656 39.7844 37.9352 40.0185 39.5359C40.0598 39.7981 40.0598 40.0603 40.0598 40.3225C40.0598 41.3575 40.0598 42.4062 40.0598 43.4964H32.9953C33.0779 41.8956 32.7612 40.3087 33.2569 38.7769H33.2432ZM40.9687 57.641C38.0079 57.641 35.0334 57.641 32.0726 57.641C31.0674 57.641 30.6542 57.2132 30.6542 56.2059C30.6542 53.2665 30.6542 50.3272 30.6542 47.3741C30.6542 46.3253 31.0674 45.9113 32.1277 45.9113C33.6012 45.9113 35.0747 45.9113 36.5344 45.9113C37.9942 45.9113 39.4814 45.9113 40.9412 45.9113C41.9602 45.9113 42.3871 46.3115 42.3871 47.3189C42.4009 50.2858 42.4009 53.2527 42.3871 56.2197C42.3871 57.2546 41.974 57.641 40.9549 57.641H40.9687Z" fill="#19FFDB"/>
<path d="M36.5482 47.0567C34.9783 47.0567 33.5461 48.1331 33.133 49.6648C32.6923 51.2656 33.3947 52.8663 34.9095 53.6805C35.2675 53.8737 35.3777 54.0669 35.3639 54.4395C35.3364 55.0881 35.3639 55.7505 35.3639 56.4267H37.705C37.705 55.7229 37.7187 55.1157 37.705 54.4947C37.6912 54.1083 37.7876 53.8737 38.1732 53.6667C39.688 52.8526 40.349 51.307 39.9359 49.7062C39.5365 48.1607 38.1456 47.0567 36.562 47.0567H36.5482ZM36.5482 51.7486C35.9285 51.7486 35.3501 51.1966 35.3639 50.5618C35.3639 49.9408 35.8872 49.444 36.5069 49.4302C37.1404 49.4302 37.6499 49.8994 37.6637 50.5204C37.6912 51.1828 37.1817 51.721 36.5344 51.7348L36.5482 51.7486Z" fill="#19FFDB"/>
</svg>
