<svg width="73" height="73" viewBox="0 0 73 73" fill="none" xmlns="http://www.w3.org/2000/svg">
<path d="M40.0213 33.9119C40.047 33.2054 40.0213 32.4861 40.0213 31.7796C40.0213 32.4861 40.0341 33.2054 40.0213 33.9119Z" fill="#19FFDB"/>
<path d="M41.9332 70.6236C48.041 70.6365 54.1487 70.6236 60.2565 70.6236H61.1547V68.2601H42.331V65.8966H61.1547V63.5716H60.2693C54.1102 63.5716 47.964 63.5716 41.8049 63.5716C41.2659 63.5716 40.0726 62.7623 40.047 62.2871C39.9956 61.1567 40.0341 60.0263 40.0341 58.8702H48.8365C52.455 58.8702 56.0606 58.8702 59.6791 58.8702C60.7441 58.8702 61.1932 58.4849 61.206 57.5215C61.2189 52.91 61.206 48.2857 61.206 43.6743C61.206 42.8265 60.7698 42.4155 59.9357 42.3512C59.6149 42.3256 59.2813 42.3512 58.9349 42.3512V40.0519C67.6089 40.4887 73.5499 33.3853 72.9596 26.0763C72.6773 22.4925 71.1761 19.4739 68.4173 17.1746C64.5165 13.9376 60.0897 13.3081 55.2779 14.9523C54.8416 10.9575 53.289 7.56632 50.4918 4.7789C47.6945 1.99148 44.3198 0.27022 40.3934 0.0390058C31.899 -0.449113 26.3045 3.66137 23.0453 11.3942C19.6193 10.0583 16.2318 10.2124 13.0881 12.2677C9.91871 14.3358 8.36611 17.3672 8.22496 21.1694C8.04532 21.2208 7.86568 21.285 7.68604 21.3236C5.05559 21.8374 3.02822 23.2375 1.52694 25.4469C0.70573 26.6672 0.333618 28.0673 0 29.4675V31.7539C0.0769887 32.0237 0.153978 32.2934 0.218135 32.5632C1.24465 36.9948 4.91445 39.9492 9.53377 40.0134C11.035 40.0391 12.5235 40.0134 14.0761 40.0134V42.3512C13.7553 42.3512 13.4474 42.3384 13.1522 42.3512C12.2412 42.4026 11.8049 42.8137 11.8049 43.7385C11.8049 48.3114 11.8049 52.8715 11.8049 57.4444C11.8049 58.472 12.2412 58.8702 13.3319 58.8702C16.7835 58.8702 20.2224 58.8702 23.674 58.8702H32.9768C32.9768 60.0263 33.0025 61.1567 32.964 62.2871C32.9383 62.7623 31.745 63.5844 31.2189 63.5844C25.0598 63.5844 18.9136 63.5844 12.7545 63.5844H11.8691V65.9094H30.6928V68.2729H11.8049V70.6365H12.7031C18.8109 70.6365 24.9187 70.6365 31.0265 70.6365C31.5397 70.6365 31.9118 70.7392 32.2583 71.1503C33.1308 72.1908 34.3498 72.6532 35.6201 73H37.3267C38.597 72.6532 39.816 72.1908 40.6885 71.1503C41.035 70.7392 41.4071 70.6236 41.9203 70.6365L41.9332 70.6236ZM9.67492 37.6242C6.69802 37.6242 4.49101 36.3268 3.09238 33.6807C1.18049 30.0969 3.11804 25.2285 6.98031 23.9697C7.67321 23.7385 8.4046 23.5972 9.13599 23.5201C10.355 23.3917 10.7399 22.9935 10.6373 21.786C10.4576 19.6794 11.035 17.7911 12.3054 16.1084C14.7177 12.9228 19.1445 11.9722 22.6732 13.8733C22.7758 13.9247 22.8785 13.9889 22.9811 14.0403C24.1103 14.6312 24.7134 14.3229 25.124 13.1283C25.5474 11.8695 25.958 10.585 26.5996 9.44173C29.4482 4.39354 34.9914 1.67035 40.6372 2.40253C46.822 3.19894 51.5055 7.86176 52.6859 13.655C52.8784 14.5798 52.9297 15.5432 52.9682 16.4938C53.0196 17.8939 53.751 18.382 55.0213 17.7141C57.4849 16.4167 60.064 16.0956 62.7458 16.7892C67.4934 18.0224 70.9579 22.5439 70.5986 27.8875C70.2907 32.5889 66.5054 36.7636 61.7065 37.4829C60.9879 37.5985 60.2437 37.6242 59.5123 37.6242C51.2873 37.6242 43.0624 37.6242 34.8502 37.6242C26.4585 37.6242 18.0667 37.6242 9.68775 37.6242H9.67492ZM56.4584 40.0648V42.287H16.5141V40.0648H56.4456H56.4584ZM14.1403 56.4425V44.7661H58.8065V56.4425H14.1403ZM37.5962 58.8959V61.2594H35.3507V58.8959H37.5962ZM36.4542 70.6236C34.5038 70.6108 32.8998 68.9923 32.9383 67.0655C32.9768 65.1259 34.5936 63.5587 36.5311 63.5844C38.4302 63.6101 40.0085 65.2158 40.0085 67.1169C40.0085 69.0565 38.3917 70.6365 36.4542 70.6236Z" fill="#19FFDB"/>
<path d="M34.4652 25.8579C35.8254 25.8708 37.1727 25.8708 38.5328 25.8579C39.5722 25.8579 40.0341 25.4084 40.0341 24.3807C40.0341 19.0757 40.0341 13.7706 40.0341 8.46549C40.0341 7.42502 39.5978 7.00113 38.5456 6.98828C37.2368 6.97544 35.928 6.98828 34.6192 6.98828C33.2976 6.98828 32.9383 7.3608 32.9383 8.6967C32.9383 11.2658 32.9383 13.8348 32.9383 16.4038C32.9383 19.05 32.9383 21.6832 32.9383 24.3294C32.9383 25.4084 33.3874 25.8451 34.4524 25.8579H34.4652ZM35.3763 9.36465H37.6089V23.4302H35.3763V9.3775V9.36465Z" fill="#19FFDB"/>
<path d="M40.0213 33.9119C40.0469 33.2054 40.0213 32.4861 40.0213 31.7796C40.0213 31.0731 40.0341 30.3538 40.0213 29.6473C39.9956 28.6968 39.5593 28.2343 38.6226 28.2215C37.1984 28.1958 35.7741 28.1958 34.3498 28.2215C33.4002 28.2343 32.9511 28.6839 32.9383 29.6345C32.9127 31.0603 32.9127 32.4861 32.9383 33.9119C32.9511 34.8239 33.4002 35.2864 34.2984 35.3121C35.7484 35.3377 37.1984 35.3377 38.6355 35.3121C39.5465 35.2992 39.9828 34.8368 40.0084 33.9376L40.0213 33.9119ZM37.5833 32.8843H35.3635V30.6364H37.5833V32.8843Z" fill="#19FFDB"/>
<path d="M20.0171 47.0654C18.0923 47.0398 16.4884 48.6454 16.4884 50.5979C16.4884 52.5504 18.0795 54.156 20.0171 54.1432C21.9289 54.1432 23.5072 52.5504 23.52 50.6364C23.5329 48.6839 21.9674 47.0783 20.0299 47.0654H20.0171ZM20.0555 51.754C19.4011 51.7796 18.8494 51.2915 18.8237 50.6493C18.7981 50.0327 19.337 49.4675 19.9657 49.4547C20.6073 49.4418 21.1462 49.9685 21.1462 50.6107C21.1462 51.2273 20.6586 51.7411 20.0427 51.7668L20.0555 51.754Z" fill="#19FFDB"/>
<path d="M29.3969 47.0655C27.485 47.0783 25.9195 48.6454 25.9067 50.5722C25.8939 52.5247 27.4593 54.1303 29.3969 54.1432C31.3216 54.156 32.9255 52.5504 32.9255 50.6107C32.9255 48.6583 31.3216 47.0526 29.3969 47.0655ZM29.4097 51.754C28.7681 51.754 28.2292 51.2145 28.242 50.5851C28.242 49.9813 28.7681 49.4675 29.3712 49.4418C30.0128 49.4161 30.5645 49.9428 30.5773 50.5851C30.5773 51.2145 30.0513 51.754 29.4097 51.754Z" fill="#19FFDB"/>
<path d="M40.0726 49.4033H42.3181V47.104H40.0726V49.4033Z" fill="#19FFDB"/>
<path d="M47.0016 47.104H44.7817V49.4033H47.0016V47.104Z" fill="#19FFDB"/>
<path d="M49.4909 49.4033H51.7364V47.104H49.4909V49.4033Z" fill="#19FFDB"/>
<path d="M54.2129 49.4033H56.4456V47.1169H54.2129V49.4033Z" fill="#19FFDB"/>
<path d="M40.0854 54.1047H42.3053V51.8054H40.0854V54.1047Z" fill="#19FFDB"/>
<path d="M44.7817 54.0918H47.0272V51.8182H44.7817V54.0918Z" fill="#19FFDB"/>
<path d="M49.4909 54.1175H51.7364V51.8182H49.4909V54.1175Z" fill="#19FFDB"/>
<path d="M54.2001 54.1175H56.4456V51.8182H54.2001V54.1175Z" fill="#19FFDB"/>
</svg>
