<svg width="73" height="73" viewBox="0 0 73 73" fill="none" xmlns="http://www.w3.org/2000/svg">
<path d="M11.0034 60.3108C16.8001 60.3108 22.5968 60.3108 28.3806 60.3108C28.6884 60.3108 28.9962 60.2974 29.2912 60.217C29.958 60.0428 30.3684 59.4666 30.3941 58.7564C30.4069 58.0061 29.9965 57.3897 29.304 57.2155C28.9834 57.1351 28.6499 57.1217 28.3165 57.1217C22.289 57.1217 16.2486 57.1619 10.2211 57.0815C6.21988 57.0279 2.94964 53.2627 3.05223 49.0821C3.15483 44.754 6.45073 41.3104 10.5033 41.297C15.1073 41.297 19.7113 41.297 24.3281 41.297C25.8029 41.297 27.2777 41.297 28.7397 41.297C29.7016 41.297 30.3813 40.6538 30.4197 39.7561C30.471 38.7511 29.74 38.0543 28.6115 38.0543C22.5327 38.0543 16.4538 38.0543 10.375 38.0543C6.24553 38.0543 2.75727 34.0613 3.07788 29.7601C3.39849 25.3517 6.56615 22.2698 10.7982 22.2698C25.7516 22.2698 40.7178 22.2698 55.6712 22.2564C57.5948 22.2564 59.3262 22.6584 60.8779 23.8644C61.6217 24.4405 62.5195 24.2663 63.0196 23.5428C63.5198 22.8192 63.3659 21.908 62.6477 21.3051C62.3784 21.0907 62.0963 20.8897 61.7756 20.6485C61.968 20.5145 62.0578 20.4341 62.1604 20.3671C62.2758 20.2867 62.3912 20.2063 62.5066 20.1125C65.8538 17.4192 67.3799 13.8416 66.7515 9.48679C65.9308 3.80543 61.5448 0.0133994 56.0174 0C51.5032 0 46.989 0 42.4876 0C31.9458 0 21.4041 0 10.8624 0C5.83515 0 1.64154 3.33645 0.371911 8.29424C0.243666 8.79002 0.14107 9.28579 0.025649 9.79497V12.4749C0.14107 12.9706 0.243666 13.4798 0.371911 13.9756C1.05161 16.5617 2.43666 18.6252 4.5014 20.2063C4.68094 20.3403 4.87331 20.4877 5.10415 20.6753C4.89896 20.8361 4.75789 20.9433 4.61682 21.0505C2.14169 22.8996 0.615576 25.3651 0.14107 28.5274C0.128245 28.6479 0.0641225 28.7551 0.0128245 28.8623V31.5422C0.128245 32.038 0.230841 32.5472 0.359086 33.043C1.03878 35.629 2.42383 37.6926 4.48858 39.2737C4.65529 39.4077 4.83484 39.5417 5.00156 39.6757C5.00156 39.6757 5.00156 39.7159 5.01438 39.7963C4.95026 39.8499 4.87331 39.9303 4.77072 39.9973C2.18017 41.8598 0.589927 44.3923 0.115421 47.6751C0.102596 47.7689 0.0384735 47.8493 0 47.9297V50.6096C0.0384735 50.69 0.102596 50.7838 0.115421 50.8642C1.11573 56.6661 5.34782 60.3912 10.9778 60.3912L11.0034 60.3108ZM3.18048 12.4347C2.5649 8.50863 4.70659 4.71659 8.28463 3.55085C9.1054 3.28286 10.0031 3.16226 10.8752 3.14886C25.944 3.12206 41.0256 3.12206 56.0944 3.14886C60.6214 3.14886 63.9943 6.7667 63.866 11.3627C63.7506 15.5433 60.4034 18.9602 56.3893 18.9736C48.7459 18.9736 41.1025 18.9736 33.4591 18.9736C25.8414 18.9736 18.2236 18.9736 10.593 18.9736C6.93806 18.9736 3.75758 16.1597 3.18048 12.4481V12.4347Z" fill="#19FFDB"/>
<path d="M67.457 63.674C71.0863 59.3594 73.0869 54.3882 72.9972 48.5595C72.933 44.486 72.9972 40.426 72.9843 36.3526C72.9843 35.2404 72.6894 34.7849 71.6762 34.4231C66.2899 32.5204 60.9036 30.6042 55.5045 28.7283C55.0428 28.5675 54.4529 28.5809 54.0041 28.7283C48.5793 30.6042 43.1674 32.5204 37.7554 34.4365C36.8449 34.7581 36.5114 35.2404 36.5114 36.2722C36.5114 40.7342 36.4986 45.2096 36.5114 49.6716C36.5243 52.3783 37.1142 54.9778 38.1658 57.4567C40.0766 61.9589 43.1802 65.4159 46.8865 68.3638C49.1949 70.1995 51.7085 71.6869 54.3118 73H55.1711C55.3506 72.8928 55.543 72.7856 55.7225 72.6918C60.1855 70.4675 64.1739 67.5732 67.457 63.674ZM54.3888 69.4491C49.2205 66.6621 44.7063 63.0978 41.731 57.7247C40.2562 55.0716 39.538 52.1907 39.538 49.1356C39.538 45.3704 39.538 41.5918 39.5252 37.8265C39.5252 37.304 39.7047 37.103 40.1536 36.9556C44.873 35.3074 49.5924 33.6325 54.3118 31.9844C54.594 31.8906 54.9787 31.8906 55.2609 31.9844C59.9803 33.6325 64.6997 35.3074 69.4191 36.9556C69.868 37.1164 69.9834 37.3442 69.9834 37.7997C69.9577 39.9838 69.9834 42.1679 69.9834 44.352H70.0603C69.9706 46.7773 70.0347 49.2294 69.7654 51.6279C69.3293 55.554 67.4826 58.8368 64.9947 61.7445C62.2246 64.9871 58.8774 67.4526 55.1967 69.4224C54.9787 69.5295 54.6196 69.5563 54.4144 69.4491H54.3888Z" fill="#19FFDB"/>
<path d="M28.9578 25.3651C26.4314 25.3383 24.3795 27.442 24.3666 30.0951C24.3538 32.7482 26.3801 34.8921 28.8937 34.8921C31.4073 34.8921 33.472 32.7482 33.472 30.1219C33.472 27.5358 31.4329 25.3785 28.9578 25.3651ZM28.8937 31.7164C28.0857 31.7164 27.406 30.9928 27.3932 30.1487C27.3932 29.2777 28.0857 28.5274 28.9193 28.5408C29.7273 28.5408 30.3942 29.2509 30.407 30.1085C30.407 30.9928 29.7273 31.7298 28.8937 31.7164Z" fill="#19FFDB"/>
<path d="M28.9193 44.4191C26.3929 44.4191 24.3666 46.5362 24.3666 49.1893C24.3666 51.8289 26.4057 53.9595 28.9321 53.9461C31.4072 53.9461 33.4463 51.8155 33.472 49.2161C33.4976 46.6032 31.4201 44.4325 28.9193 44.4191ZM28.8936 50.7704C28.0857 50.7704 27.406 50.0602 27.3932 49.2161C27.3803 48.3451 28.0857 47.5947 28.9065 47.5947C29.7144 47.5947 30.3813 48.2915 30.3941 49.1491C30.4069 50.0334 29.7272 50.7704 28.8936 50.7704Z" fill="#19FFDB"/>
<path d="M13.6581 25.3651C11.183 25.3785 9.14392 27.5224 9.14392 30.1085C9.14392 32.7348 11.1958 34.8921 13.7094 34.8787C16.223 34.8787 18.275 32.7214 18.2621 30.0951C18.2621 27.4688 16.1846 25.3383 13.6581 25.3517V25.3651ZM13.6581 31.7164C12.8502 31.703 12.1705 30.9794 12.1705 30.1353C12.1705 29.2643 12.8887 28.5273 13.7223 28.5407C14.5302 28.5541 15.2099 29.2777 15.2099 30.1219C15.2099 30.9928 14.4917 31.7298 13.6581 31.7164Z" fill="#19FFDB"/>
<path d="M13.7479 44.4191C11.2343 44.4057 9.15675 46.5362 9.14392 49.1491C9.14392 51.7753 11.183 53.9327 13.6966 53.9327C16.2102 53.9327 18.2621 51.7887 18.2621 49.1625C18.2621 46.563 16.223 44.4325 13.7479 44.4057V44.4191ZM13.6966 50.7704C12.863 50.7704 12.1577 50.0066 12.1833 49.1357C12.209 48.2915 12.9015 47.5947 13.7094 47.5947C14.5046 47.5947 15.1971 48.3049 15.2227 49.1491C15.2356 50.0066 14.5302 50.7704 13.6966 50.7704Z" fill="#19FFDB"/>
<path d="M28.8936 15.8247C31.3944 15.8247 33.472 13.654 33.4592 11.0545C33.4592 8.42822 31.3816 6.29771 28.868 6.31111C26.3544 6.32451 24.3281 8.46842 24.3538 11.1215C24.3794 13.7344 26.3929 15.8381 28.8936 15.8381V15.8247ZM28.8808 9.47338C29.7144 9.47338 30.4069 10.1969 30.3941 11.0813C30.3941 11.9389 29.7272 12.6356 28.9065 12.649C28.0729 12.649 27.3675 11.9121 27.3803 11.0411C27.3803 10.1969 28.0729 9.48678 28.8808 9.47338Z" fill="#19FFDB"/>
<path d="M13.6966 15.8247C16.2102 15.8247 18.2621 13.6808 18.2621 11.0545C18.2621 8.42822 16.1974 6.29771 13.671 6.31111C11.1574 6.32451 9.11827 8.49522 9.14392 11.1215C9.16957 13.7076 11.2087 15.8381 13.6966 15.8381V15.8247ZM13.7479 9.47338C14.5559 9.50017 15.2227 10.2371 15.2227 11.0679C15.2227 11.9389 14.4789 12.6758 13.6581 12.649C12.8502 12.6222 12.1833 11.8853 12.1833 11.0545C12.1833 10.1835 12.9271 9.44658 13.7479 9.48678V9.47338Z" fill="#19FFDB"/>
<path d="M64.9562 43.3203C64.3277 42.6369 63.43 42.6503 62.6862 43.4007C61.968 44.1243 61.2755 44.8746 60.5702 45.6116C58.1976 48.1039 55.8123 50.5962 53.3628 53.1689C51.6956 50.9848 50.0925 48.8945 48.4895 46.8175C47.8226 45.9466 46.9121 45.7724 46.1939 46.3754C45.4629 46.9783 45.4244 47.9029 46.117 48.8007C48.0406 51.3197 49.9643 53.8388 51.9008 56.3445C52.6575 57.3227 53.568 57.4031 54.4016 56.5321C57.8898 52.9143 61.3525 49.283 64.8151 45.6518C65.5204 44.9148 65.5461 43.9903 64.9433 43.3337L64.9562 43.3203Z" fill="#19FFDB"/>
</svg>
