<svg width="64" height="64" viewBox="0 0 64 64" fill="none" xmlns="http://www.w3.org/2000/svg">
<path d="M63.25 64H19.5C19.0854 64 18.75 63.6144 18.75 63.1377V52.0096C8.34377 51.5545 0 41.679 0 29.6048C0 17.5305 8.34377 7.65748 18.75 7.20239V0.862264C18.75 0.385629 19.0854 0 19.5 0H63.25C63.6646 0 64 0.385629 64 0.862264V63.1377C64 63.6144 63.6646 64 63.25 64ZM57.75 62.2755H62.4979V1.72454H20.25V7.20239C30.6562 7.65748 39 17.5305 39 29.6048C39 41.6766 30.6562 51.5521 20.25 52.0096V62.2755H35.4166V48.7665C35.4166 48.2898 35.7521 47.9042 36.1666 47.9042H44.5C44.9146 47.9042 45.25 48.2898 45.25 48.7665V62.2755H47.9146V32C47.9146 31.5233 48.25 31.1377 48.6646 31.1377H56.9979C57.4125 31.1377 57.7479 31.5233 57.7479 32L57.75 62.2755ZM49.4167 62.2755H56.2479V32.8622H49.4167V62.2755ZM36.9166 62.2755H43.7479V49.6287H36.9166V62.2755ZM6.4771 43.8778C9.75835 47.8299 14.3833 50.2994 19.5 50.2994C24.6166 50.2994 29.2437 47.8323 32.5229 43.8754C30.3541 39.6072 26.5562 36.5293 22.2645 35.5952C21.9312 35.5233 21.6833 35.2048 21.6562 34.8167C21.6291 34.4287 21.8312 34.0694 22.15 33.9377C25.3333 32.6275 27.4729 29.1569 27.4729 25.3054C27.4729 20.2276 23.8791 16.0982 19.4646 16.0982C15.05 16.0982 11.4563 20.2299 11.4563 25.3054C11.4563 29.1592 13.5938 32.6299 16.7771 33.9377C17.0958 34.0694 17.2979 34.4287 17.2708 34.8167C17.2438 35.2048 16.9958 35.5233 16.6625 35.5952C12.3542 36.5341 8.66877 39.5353 6.4771 43.8778ZM24.5562 34.4934C28.2708 35.8754 31.5 38.7401 33.5583 42.515C36.0229 38.9724 37.4979 34.4814 37.4979 29.6048C37.4979 18.194 29.425 8.9102 19.4979 8.9102C9.57083 8.9102 1.50001 18.194 1.50001 29.6048C1.50001 34.4814 2.97499 38.97 5.44166 42.515C7.51252 38.685 10.6646 35.8634 14.3709 34.491C11.6688 32.5149 9.95835 29.0634 9.95835 25.303C9.95835 19.2743 14.2229 14.3713 19.4667 14.3713C24.7104 14.3713 28.975 19.2743 28.975 25.303C28.9729 29.0634 27.2604 32.5173 24.5562 34.4934ZM57 25.6766H44.5V23.9521H57V25.6766ZM57 18.491H44.5V16.7665H57V18.491ZM57 11.3054H44.5V9.58084H57V11.3054Z" fill="#19FFDB"/>
</svg>
