<svg width="64" height="64" viewBox="0 0 64 64" fill="none" xmlns="http://www.w3.org/2000/svg">
<path d="M50.6278 64H49.0233V48.1897C49.0233 40.702 43.6441 34.2682 35.9386 32.5396C35.6043 32.4637 35.357 32.196 35.3258 31.8735C35.2923 31.5489 35.484 31.2411 35.7982 31.1083C39.1786 29.6853 41.3601 26.5106 41.3601 23.0218C41.3601 18.1397 37.1619 14.166 32.0011 14.166C26.8403 14.166 22.6421 18.1376 22.6421 23.0218C22.6421 26.5127 24.8258 29.6875 28.204 31.1083C28.5182 31.2411 28.7076 31.5489 28.6764 31.8735C28.6452 32.196 28.3979 32.4658 28.0636 32.5396C20.3581 34.2682 14.9767 40.702 14.9767 48.1897V64H13.37V48.1897C13.37 40.6176 18.3994 34.0279 25.8175 31.5805C22.8627 29.6685 21.0354 26.4769 21.0354 23.0218C21.0354 18.8817 23.6136 15.3002 27.3283 13.6369C27.7494 12.6187 27.9879 11.4003 27.9879 10.2451C27.9879 5.35232 23.8766 1.5178 18.6289 1.5178C13.3811 1.5178 9.26764 5.35232 9.26764 10.2451C9.26764 13.7571 11.5027 17.0582 14.8296 18.4601C15.146 18.5929 15.3354 18.9007 15.302 19.2253C15.2708 19.5478 15.0235 19.8176 14.6892 19.8914C6.98362 21.62 1.60439 28.0537 1.60439 35.5415V51.3518H0V35.5415C0 27.9652 5.03382 21.3734 12.4586 18.9281C9.53061 17.0013 7.66549 13.7107 7.66549 10.2451C7.66549 4.59553 12.5834 0 18.6289 0C24.6743 0 29.5923 4.59553 29.5923 10.2451C29.5923 11.1663 29.4675 12.1022 29.2313 12.9834C31.0006 12.547 32.9949 12.547 34.7665 12.9834C34.5302 12.1001 34.4032 11.1663 34.4032 10.2451C34.4032 4.59553 39.3234 0 45.3689 0C51.4144 0 56.3345 4.59553 56.3345 10.2451C56.3345 13.7107 54.4649 17.0013 51.5391 18.9281C58.964 21.3734 64 27.9652 64 35.5415V51.3518H62.3934V35.5415C62.3934 28.0537 57.0142 21.62 49.3086 19.8914C48.9743 19.8155 48.727 19.5478 48.6958 19.2253C48.6624 18.9007 48.854 18.5929 49.1682 18.4601C52.4929 17.0582 54.7279 13.7571 54.7279 10.2451C54.7279 5.35232 50.6166 1.5178 45.3689 1.5178C40.1211 1.5178 36.0099 5.35232 36.0099 10.2451C36.0099 11.3982 36.2461 12.6166 36.6694 13.6369C40.3863 15.3002 42.9645 18.8796 42.9645 23.0218C42.9645 26.479 41.1373 29.6706 38.1825 31.5826C45.6006 34.03 50.63 40.6197 50.63 48.1918L50.6278 64ZM38.519 60.5428C38.3541 60.5428 38.1892 60.4943 38.0488 60.3974L31.9989 56.2487L25.9512 60.3974C25.6704 60.5913 25.2893 60.5913 25.0086 60.3974C24.7278 60.2034 24.6097 59.8619 24.7189 59.5499L27.0297 52.8337L20.982 48.6746C20.7012 48.4806 20.5831 48.1391 20.6901 47.8271C20.7971 47.5151 21.1067 47.3022 21.4521 47.3022H28.9282L31.239 40.5776C31.3437 40.2635 31.6512 40.0527 31.9989 40.0527C32.3465 40.0527 32.654 40.2656 32.7609 40.5776L35.0717 47.3022H42.5478C42.8954 47.3022 43.2029 47.5151 43.3121 47.8271C43.4191 48.1391 43.301 48.4827 43.0202 48.6746L36.9703 52.8337L39.2811 59.5499C39.388 59.8619 39.2699 60.2055 38.9891 60.3974C38.8488 60.4943 38.6839 60.5428 38.519 60.5428ZM31.9989 54.5539C32.1638 54.5539 32.3287 54.6024 32.469 54.6993L36.9926 57.8003L35.2656 52.7789C35.1586 52.4669 35.2767 52.1233 35.5575 51.9315L40.081 48.8221H34.4879C34.1403 48.8221 33.8328 48.6092 33.7258 48.2972L31.9989 43.2674L30.2719 48.2972C30.1649 48.6092 29.8552 48.8221 29.5098 48.8221H23.9189L28.4424 51.9315C28.7232 52.1254 28.8413 52.4669 28.7343 52.7789L27.0074 57.8003L31.5287 54.6993C31.6691 54.6024 31.834 54.5539 31.9989 54.5539Z" fill="#19FFDB"/>
</svg>
