<svg width="64" height="64" viewBox="0 0 64 64" fill="none" xmlns="http://www.w3.org/2000/svg">
<path d="M46.97 64C37.5784 64 29.9401 56.8935 29.9401 48.1559C29.9401 39.4182 37.5784 32.3117 46.97 32.3117C56.3617 32.3117 64 39.4182 64 48.1559C64 56.8935 56.3617 64 46.97 64ZM46.97 33.9162C38.5317 33.9162 31.6646 40.3051 31.6646 48.1559C31.6646 56.0066 38.5317 62.3955 46.97 62.3955C55.4084 62.3955 62.2755 56.0089 62.2755 48.1559C62.2755 40.3029 55.4084 33.9162 46.97 33.9162ZM29.1712 63.8908L0.428743 48.2918C0.162874 48.147 0 47.884 0 47.5988V16.4007H1.72456V47.1375L30.0383 62.5047L29.1712 63.8908ZM46.3712 55.0863C46.1509 55.0863 45.9281 55.0083 45.7605 54.8523L39.6383 49.1587L40.8599 48.0222L46.3712 53.1498L55.9569 44.2271L57.1784 45.3636L46.982 54.8523C46.8144 55.0083 46.5916 55.0863 46.3712 55.0863ZM11.3054 31.9997H9.58084V9.71539H11.3054V31.9997ZM59.2096 29.7713H57.485V16.862L29.6048 1.73094L20.8862 6.4463V25.3145H19.1617V5.98277C19.1617 5.69753 19.3246 5.43234 19.5904 5.28972L29.1712 0.108636C29.4395 -0.036212 29.7724 -0.036212 30.0383 0.108636L58.7808 15.7076C59.0467 15.8503 59.2096 16.1154 59.2096 16.4007V29.7713Z" fill="#19FFDB"/>
</svg>
