<svg width="64" height="64" viewBox="0 0 64 64" fill="none" xmlns="http://www.w3.org/2000/svg">
<path d="M63.25 64H0.750011C0.335417 64 0 63.6646 0 63.25V0.750011C0 0.335417 0.335417 0 0.750011 0H63.25C63.6646 0 64 0.335417 64 0.750011V63.25C64 63.6646 63.6646 64 63.25 64ZM1.50001 62.5H62.5V24.4166H1.50001V62.5ZM26.5 22.9166H62.5V1.50001H26.5V22.9166ZM1.50001 22.9166H25V1.50001H1.50001V22.9166ZM17.4167 55.6667C11.2583 55.6667 6.25 50.6562 6.25 44.5H7.75002C7.75002 49.8312 12.0875 54.1667 17.4167 54.1667C22.7458 54.1667 27.0833 49.8312 27.0833 44.5C27.0833 39.1687 22.7479 34.8333 17.4167 34.8333V33.3333C23.575 33.3333 28.5833 38.3437 28.5833 44.5C28.5833 50.6562 23.575 55.6667 17.4167 55.6667ZM55.6667 54.9167H54.1667V32H55.6687L55.6667 54.9167ZM47.3333 54.9167H45.8333V38.25H47.3354L47.3333 54.9167ZM39 54.9167H37.5V48.6667H39.0021L39 54.9167Z" fill="#19FFDB"/>
</svg>
