<svg width="73" height="73" viewBox="0 0 73 73" fill="none" xmlns="http://www.w3.org/2000/svg">
<path d="M23.5961 3.34959C23.4782 3.52926 23.095 3.68327 22.8297 3.68327C21.0611 3.70894 19.2778 3.68327 17.5092 3.6961C16.3449 3.6961 15.888 4.10678 15.8732 5.12064C15.8732 5.865 15.8732 6.62218 15.8732 7.3922C12.2034 7.3922 8.65143 7.3922 5.11422 7.3922C1.8423 7.3922 0 9.00925 0 11.8583C0 29.0426 0 46.2269 0 63.4113C0 66.2475 1.85704 67.8645 5.14369 67.8645C14.0162 67.8645 22.8887 67.8645 31.7612 67.8645H32.7339C32.8224 68.1212 32.8813 68.3266 32.955 68.5319C33.8835 71.1371 36.5659 72.9724 39.6462 72.9852C48.4303 73.0108 57.2291 72.998 66.0132 72.9852C67.6197 72.9852 69.064 72.4975 70.3021 71.612C73.1613 69.5843 73.8245 66.286 71.9233 63.3984C67.9734 57.4051 63.994 51.4374 60.0441 45.4441C59.7936 45.0591 59.6315 44.5586 59.6315 44.1094C59.602 33.3419 59.6167 22.5745 59.6167 11.807C59.6167 9.00925 57.7597 7.40504 54.532 7.40504C51.2306 7.40504 47.9292 7.40504 44.6278 7.40504H43.7435C43.7435 6.54518 43.7435 5.81366 43.7435 5.08214C43.7435 4.10678 43.2866 3.70894 42.137 3.70894C40.3832 3.70894 38.644 3.6961 36.8902 3.70894C36.3891 3.70894 36.109 3.59343 35.888 3.19559C35.2542 2.07906 34.2815 1.2192 32.9845 0.680185C32.336 0.410678 31.6286 0.218173 30.9506 0H28.8283C28.8283 0 28.6956 0.0898358 28.6072 0.102669C26.3375 0.48768 24.7015 1.59138 23.6256 3.36243L23.5961 3.34959ZM69.5651 64.4251C71.599 67.5052 69.4767 70.7136 65.3942 70.7265C61.1937 70.7265 56.9933 70.7265 52.7929 70.7265C48.5924 70.7265 44.4509 70.7265 40.2652 70.7265C36.1238 70.7265 34.0014 67.5309 36.0648 64.3994C40.2358 58.0853 44.4215 51.7839 48.6072 45.4698C50.6853 42.3512 54.9152 42.364 56.9933 45.4954C61.179 51.7968 65.3647 58.1109 69.5504 64.4251H69.5651ZM43.714 11.9995C43.714 11.3065 43.714 10.6263 43.714 9.93327C43.714 9.89477 43.7435 9.84344 43.7877 9.70227H47.9734C50.2136 9.70227 52.4539 9.70227 54.6941 9.70227C56.2122 9.70227 56.9638 10.3568 56.9638 11.6658C56.9638 14.7331 56.9638 17.8003 56.9638 20.8676V41.7352C55.6079 41.4656 54.2962 41.0165 52.955 40.9523C50.1989 40.8111 48.0176 41.8892 46.6175 43.9682C42.2255 50.5134 37.8924 57.0714 33.574 63.6423C33.1908 64.2326 32.955 64.9 32.616 65.6058H31.8054C22.9329 65.6058 14.0604 65.6058 5.20265 65.6058C3.27192 65.6058 2.60869 65.0283 2.60869 63.3343C2.60869 46.2269 2.60869 29.1196 2.60869 11.9995C2.60869 10.267 3.25718 9.70227 5.2616 9.70227C8.47457 9.70227 11.7023 9.70227 14.93 9.70227H15.888C15.888 10.4851 15.888 11.191 15.888 11.8968C15.888 13.0134 16.3301 13.4112 17.5976 13.4112C25.7627 13.4112 33.913 13.4112 42.0781 13.4112C43.2719 13.4112 43.714 13.0262 43.7288 11.9995H43.714ZM29.801 2.2844C31.6286 2.2844 33.235 3.28542 33.8541 4.81263C34.2815 5.865 34.4878 5.99333 35.7406 5.99333C37.4797 5.99333 39.2336 5.99333 41.0464 5.99333V11.1011H18.5704V5.99333C20.339 5.99333 22.0781 5.99333 23.8025 5.99333C25.1731 5.99333 25.3353 5.89066 25.8069 4.7613C26.4406 3.25976 28.0029 2.29723 29.801 2.29723V2.2844Z" fill="#19FFDB"/>
<path d="M10.6116 21.0344C10.6116 22.0996 10.6116 23.1776 10.6116 24.2428C10.6116 25.2695 10.6116 26.2834 10.6116 27.3101C10.6116 28.3111 11.039 28.7218 12.1592 28.7346C14.5615 28.7603 16.9639 28.7603 19.3662 28.7346C20.4421 28.7346 20.9138 28.2983 20.9285 27.3743C20.9285 25.2824 20.9285 23.1905 20.9285 21.0986C20.9285 20.1874 20.4569 19.7639 19.4399 19.7639C16.9786 19.751 14.532 19.751 12.0707 19.7639C11.0833 19.7639 10.6264 20.1874 10.6116 21.0344ZM13.2793 22.0739H18.2314V26.4117H13.2793V22.0739Z" fill="#19FFDB"/>
<path d="M19.4252 35.0231C16.9639 35.0103 14.5173 35.0103 12.056 35.0231C11.0685 35.0231 10.6116 35.4467 10.6116 36.3065C10.6116 37.3717 10.6116 38.4497 10.6116 39.5149C10.6116 40.5416 10.6116 41.5555 10.6116 42.5822C10.6116 43.5832 11.039 43.9939 12.1739 43.9939C14.5763 44.0196 16.9786 44.0196 19.381 43.9939C20.4569 43.9939 20.9285 43.5575 20.9285 42.6207C20.9285 40.5288 20.9285 38.4369 20.9285 36.345C20.9285 35.4467 20.4569 35.0231 19.4399 35.0231H19.4252ZM18.2314 41.671H13.2645V37.346H18.2314V41.671Z" fill="#19FFDB"/>
<path d="M19.4252 50.2824C16.9639 50.2696 14.5173 50.2696 12.056 50.2824C11.0685 50.2824 10.6264 50.7059 10.6116 51.5658C10.6116 52.631 10.6116 53.709 10.6116 54.7742C10.6116 55.8137 10.6116 56.8661 10.6116 57.9056C10.6116 58.804 11.0538 59.2275 12.1002 59.2403C14.5615 59.266 17.0081 59.266 19.4694 59.2403C20.4421 59.2403 20.9285 58.7911 20.9285 57.9441C20.9432 55.8265 20.9285 53.7218 20.9285 51.6043C20.9285 50.7059 20.4569 50.2824 19.4252 50.2824ZM18.2461 56.9174H13.2793V52.5925H18.2461V56.9174Z" fill="#19FFDB"/>
<path d="M28.0325 22.0098C28.2683 22.0355 28.5188 22.0355 28.7694 22.0355C34.8858 22.0355 40.9875 22.0355 47.1039 22.0355C47.3987 22.0355 47.7082 22.0355 48.003 21.9713C48.7104 21.8173 49.0346 21.3938 48.9904 20.7649C48.9315 20.0976 48.4156 19.7639 47.3987 19.7639C44.2594 19.7639 41.1201 19.7639 37.9956 19.7639C35.1806 19.7639 32.3803 19.7639 29.5653 19.7639C29.0789 19.7639 28.5778 19.7511 28.0914 19.7767C27.3398 19.8281 26.8534 20.2772 26.8534 20.8804C26.8534 21.4836 27.2955 21.9328 28.0472 22.0226L28.0325 22.0098Z" fill="#19FFDB"/>
<path d="M28.8135 28.7475C34.9005 28.7475 40.9727 28.7475 47.0596 28.7475C47.3249 28.7475 47.6049 28.7475 47.8702 28.709C48.5924 28.6063 48.9904 28.2213 48.9756 27.5796C48.9756 26.9379 48.5482 26.5657 47.826 26.4887C47.5607 26.4631 47.2807 26.4631 47.0154 26.4631C43.994 26.4631 40.9579 26.4631 37.9366 26.4631C34.8857 26.4631 31.8201 26.4631 28.7693 26.4631C27.4429 26.4631 26.8238 26.8352 26.8386 27.6181C26.8386 28.3881 27.4723 28.7475 28.8135 28.7475Z" fill="#19FFDB"/>
<path d="M47.384 35.0231C44.2152 35.0231 41.0612 35.0231 37.8924 35.0231C35.1069 35.0231 32.3361 35.0231 29.5505 35.0231C29.0347 35.0231 28.5041 34.9975 28.003 35.0488C27.2808 35.113 26.8681 35.5108 26.8534 36.1397C26.8534 36.7429 27.2071 37.1279 27.8851 37.2434C28.1504 37.2947 28.4304 37.2947 28.6957 37.2947C34.8269 37.2947 40.9728 37.2947 47.1039 37.2947C47.3987 37.2947 47.7082 37.2947 48.003 37.2305C48.7104 37.0765 49.0347 36.653 48.9757 36.0242C48.9167 35.3568 48.3862 35.0231 47.384 35.0231Z" fill="#19FFDB"/>
<path d="M28.1945 41.7223C27.3839 41.7223 26.8681 42.1715 26.8386 42.7875C26.8091 43.4164 27.2807 43.8784 28.0766 43.9682C28.3124 43.9939 28.563 43.9939 28.8135 43.9939C30.0958 43.9939 31.378 43.9939 32.6602 43.9939C34.2078 43.981 35.77 44.0067 37.3176 43.9682C38.1724 43.9425 38.6735 43.442 38.644 42.7875C38.6145 42.1715 38.0987 41.7223 37.2881 41.7223C34.2667 41.7095 31.2306 41.7095 28.2093 41.7223H28.1945Z" fill="#19FFDB"/>
<path d="M28.224 52.5411C29.7273 52.5796 31.2159 52.5411 32.7192 52.5411C34.193 52.5411 35.6669 52.5411 37.1407 52.5411C37.1997 52.5411 37.2439 52.5411 37.3028 52.5411C38.1429 52.4641 38.6588 52.0149 38.6293 51.3604C38.5998 50.7444 38.084 50.2824 37.2734 50.2824C34.252 50.2695 31.2159 50.2824 28.1945 50.2824C27.5902 50.2824 27.1333 50.5134 26.9123 51.0011C26.5586 51.7583 27.1628 52.5154 28.224 52.5411Z" fill="#19FFDB"/>
<path d="M33.9867 56.9816C33.0287 56.9687 32.0855 56.9816 31.1275 56.9816C30.1695 56.9816 29.2262 56.9687 28.2683 56.9816C27.3987 56.9944 26.8681 57.4179 26.8386 58.0596C26.8092 58.7398 27.3397 59.2275 28.2388 59.2403C30.1695 59.266 32.115 59.266 34.0457 59.2403C34.9153 59.2403 35.4458 58.7654 35.4458 58.1238C35.4458 57.4564 34.9005 57.0072 33.9867 56.9816Z" fill="#19FFDB"/>
<path d="M52.8961 62.7311C54.4436 62.6926 55.6374 61.653 55.6669 60.2285C55.6964 58.6628 55.6669 57.0971 55.6669 55.5314H56.0501C56.0501 54.017 56.0501 52.4898 56.0501 50.9754C56.0501 49.6664 55.2247 48.6397 53.8688 48.3958C53.4267 48.3188 52.9403 48.3317 52.4834 48.3317C50.7295 48.3445 49.5357 49.384 49.5947 50.8984C49.6831 54.0298 49.8158 57.1741 49.9631 60.3055C50.0368 61.7429 51.3338 62.7696 52.8961 62.7311ZM52.2918 50.6289H53.4414C53.3087 53.9015 53.1761 57.1484 53.0287 60.498C52.5129 60.1002 52.0265 52.3358 52.2771 50.6289H52.2918Z" fill="#19FFDB"/>
<path d="M52.7781 63.5524C50.9506 63.5653 49.521 64.823 49.5357 66.4143C49.5357 67.98 51.0095 69.2762 52.8076 69.2762C54.6204 69.2762 56.1532 67.9159 56.109 66.3502C56.0648 64.7716 54.591 63.5268 52.7781 63.5396V63.5524ZM52.7781 67.2357C52.4981 66.825 52.2033 66.594 52.2033 66.363C52.2033 66.1833 52.6308 65.8497 52.7929 65.8753C53.0582 65.9267 53.4266 66.209 53.4414 66.4015C53.4561 66.6068 53.1171 66.8378 52.7781 67.2229V67.2357Z" fill="#19FFDB"/>
</svg>
