<svg xmlns="http://www.w3.org/2000/svg" width="64" height="64" id="hsbc"><path fill="#231F20" d="M8.8 31.6v-3.5c0-.5-.2-1-1.4-1v-.3h4.4v.3c-1.2 0-1.4.5-1.4 1V36c0 .5.2 1 1.4 1v.3H7.4V37c1.2 0 1.4-.5 1.4-1v-3.8H4V36c0 .5.2 1 1.4 1v.3H1V37c1.2 0 1.4-.5 1.4-1v-7.9c0-.5-.2-1-1.4-1v-.3h4.4v.3c-1.2 0-1.4.5-1.4 1v3.5h4.8M12.1 34.1h.4c.5 1.5 1.6 2.8 3.3 2.8 1.3 0 2.1-1.1 1.8-2.3-.6-2.2-5-2.3-5-5.3 0-1.6 1.2-2.6 2.8-2.6 1.7 0 2.4 1.2 2.8 0h.3l.3 3.4h-.4c-.4-1.5-1.4-2.7-2.9-2.7-.9 0-1.7.5-1.7 1.5 0 .9 1 1.6 1.7 2 2.1 1.3 3.6 2 3.6 3.9 0 1.4-1.2 2.9-3.3 2.9-1.6 0-2.8-1.2-2.9 0h-.3l-.5-3.6M24.4 31.5c1.6 0 2.5-.7 2.5-2 0-1.2-.8-1.8-1.9-2-1.5-.1-2-.1-2 .4v3.6h1.4m-1.3 4.3c0 .6.1.8 1.3.8 1.6 0 2.9-.5 2.9-2.3 0-1.9-1.9-2.2-3.4-2.2h-.8v3.7zm-1.6-7.7c0-.5-.2-1-1.5-1v-.3h4.2c2.4 0 4.3.6 4.3 2.7 0 1.3-.9 2-2.1 2.3 1.4.3 2.6 1.1 2.6 2.6 0 1.9-1.6 2.9-4.1 2.9h-5V37c1.3 0 1.5-.5 1.5-1v-7.9zM38.6 30.1h-.4c-.5-1.7-1.6-2.9-3.4-2.9-2.6 0-3.7 2.1-3.7 4.9 0 2.2 1.2 4.6 3.7 4.6 1.5 0 2.6-.5 3.7-1.6l.3.3c-1 1.2-2.6 2-4.1 2-3.1 0-5.4-2-5.4-5.4 0-3.1 2.2-5.5 5.4-5.5 2.2 0 2.9 1.3 3.5 0h.3l.1 3.6"></path><path fill="#FFF" d="M47.1 26.5h10.6v10.6H47.1z"></path><path fill="#DAEAE7" d="M47.1 31.9h10.6v5.3H47.1z"></path><path fill="#EE3725" d="M47.1 26.5h10.6l-5.3 5.3-5.3-5.3M47.1 37.1h10.6l-5.3-5.3-5.3 5.3"></path><path fill="#FF6700" d="M47.1 26.5v10.6l-5.3-5.3 5.3-5.3"></path><path fill="#EE3725" d="M47.1 28.5v8.6l-5.3-5.3 5.3-3.3"></path><path fill="#FF6700" d="M57.7 26.5v10.6l5.3-5.3-5.3-5.3"></path><path fill="#EE3725" d="M57.7 28.5v8.6l5.3-5.3-5.3-3.3"></path><path fill="#FF6700" d="M49 28.4h6.8l1.9-1.9H47.1z"></path><path fill="#D60F05" d="M57.7 34.7v2.4l2.4-2.4zM47.1 37.1h10.6l-2.4-2.4h-5.8zM44.7 34.7l2.4 2.4v-2.4z"></path><path fill="#4D5655" d="M38.1 26.5c-.5 1.3-1.3 0-3.5 0-3.1 0-5.3 2.3-5.4 5.3H31c.1-2.7 1.2-4.7 3.7-4.7 1.8 0 3 1.2 3.4 2.9h.4l-.1-3.5h-.3zM24.2 26.8H20v.3c1.3 0 1.5.5 1.5 1v3.7h5.1-.2c1.2-.3 2.1-.9 2.1-2.3.1-2-1.8-2.7-4.3-2.7zm.2 4.7h-1.3v-3.6c0-.6.5-.5 2-.4 1.1.2 1.9.9 1.9 2 0 1.3-1 2-2.6 2zM18.2 26.6c-.4 1.2-1.1 0-2.8 0-1.5 0-2.8 1.1-2.8 2.6 0 1.2.7 2 1.7 2.6h3.2c-.5-.3-1.1-.7-1.8-1.1-.7-.4-1.7-1.1-1.7-2 0-1 .7-1.5 1.7-1.5 1.5 0 2.5 1.2 2.9 2.7h.4l-.3-3.4h-.5zM7.4 27.1c1.2 0 1.4.5 1.4 1v3.5H4v-3.5c0-.5.2-1 1.4-1v-.3H1v.3c1.2 0 1.4.5 1.4 1v3.7h8v-3.7c0-.5.2-1 1.4-1v-.3H7.4v.3z"></path></svg>