<svg width="31" height="31" viewBox="0 0 31 31" fill="none" xmlns="http://www.w3.org/2000/svg">
<path d="M30.36 30H0.359985V0M12.36 14L15.36 17L21.86 10.5M29.36 25L24.427 20.066M17.36 3C15.3822 3 13.4488 3.58649 11.8043 4.6853C10.1598 5.78412 8.87807 7.34591 8.12119 9.17317C7.36431 11.0004 7.16628 13.0111 7.55213 14.9509C7.93798 16.8907 8.89039 18.6725 10.2889 20.0711C11.6874 21.4696 13.4693 22.422 15.4091 22.8079C17.3489 23.1937 19.3596 22.9957 21.1868 22.2388C23.0141 21.4819 24.5759 20.2002 25.6747 18.5557C26.7735 16.9112 27.36 14.9778 27.36 13C27.36 10.3478 26.3064 7.8043 24.4311 5.92893C22.5557 4.05357 20.0122 3 17.36 3Z" stroke="#19FFDB" stroke-width="0.72" stroke-miterlimit="10" stroke-linejoin="round"/>
<path d="M3.35999 23.5C3.35999 23.5989 3.33066 23.6956 3.27572 23.7778C3.22078 23.86 3.14269 23.9241 3.05133 23.9619C2.95996 23.9998 2.85943 24.0097 2.76244 23.9904C2.66545 23.9711 2.57636 23.9235 2.50643 23.8536C2.43651 23.7836 2.38889 23.6945 2.36959 23.5975C2.3503 23.5006 2.3602 23.4 2.39805 23.3087C2.43589 23.2173 2.49998 23.1392 2.5822 23.0843C2.66442 23.0293 2.76109 23 2.85999 23C2.99259 23 3.11977 23.0527 3.21354 23.1464C3.30731 23.2402 3.35999 23.3674 3.35999 23.5Z" fill="#19FFDB"/>
<path d="M5.35999 21.5C5.35999 21.5989 5.33066 21.6956 5.27572 21.7778C5.22078 21.86 5.14269 21.9241 5.05133 21.9619C4.95996 21.9998 4.85943 22.0097 4.76244 21.9904C4.66545 21.9711 4.57636 21.9235 4.50643 21.8536C4.43651 21.7836 4.38889 21.6945 4.36959 21.5975C4.3503 21.5006 4.3602 21.4 4.39805 21.3087C4.43589 21.2173 4.49998 21.1392 4.5822 21.0843C4.66442 21.0293 4.76109 21 4.85999 21C4.99259 21 5.11977 21.0527 5.21354 21.1464C5.30731 21.2402 5.35999 21.3674 5.35999 21.5Z" fill="#19FFDB"/>
<path d="M7.35999 19.5C7.35999 19.5989 7.33066 19.6956 7.27572 19.7778C7.22078 19.86 7.14269 19.9241 7.05133 19.9619C6.95996 19.9998 6.85943 20.0097 6.76244 19.9904C6.66545 19.9711 6.57636 19.9235 6.50643 19.8536C6.43651 19.7836 6.38889 19.6945 6.36959 19.5975C6.3503 19.5006 6.3602 19.4 6.39805 19.3087C6.43589 19.2173 6.49998 19.1392 6.5822 19.0843C6.66442 19.0293 6.76109 19 6.85999 19C6.99259 19 7.11977 19.0527 7.21354 19.1464C7.30731 19.2402 7.35999 19.3674 7.35999 19.5Z" fill="#19FFDB"/>
<path d="M10.36 16.5C10.36 16.5989 10.3307 16.6956 10.2757 16.7778C10.2208 16.86 10.1427 16.9241 10.0513 16.9619C9.95996 16.9998 9.85943 17.0097 9.76244 16.9904C9.66545 16.9711 9.57636 16.9235 9.50643 16.8536C9.43651 16.7836 9.38889 16.6945 9.36959 16.5975C9.3503 16.5006 9.3602 16.4 9.39805 16.3087C9.43589 16.2173 9.49998 16.1392 9.5822 16.0843C9.66443 16.0293 9.76109 16 9.85999 16C9.99259 16 10.1198 16.0527 10.2135 16.1464C10.3073 16.2402 10.36 16.3674 10.36 16.5Z" fill="#19FFDB"/>
<path d="M24.36 8.5C24.36 8.59889 24.3307 8.69556 24.2757 8.77778C24.2208 8.86001 24.1427 8.9241 24.0513 8.96194C23.96 8.99978 23.8594 9.00969 23.7624 8.99039C23.6654 8.9711 23.5764 8.92348 23.5064 8.85355C23.4365 8.78363 23.3889 8.69454 23.3696 8.59755C23.3503 8.50056 23.3602 8.40002 23.398 8.30866C23.4359 8.2173 23.5 8.13921 23.5822 8.08426C23.6644 8.02932 23.7611 8 23.86 8C23.9926 8 24.1198 8.05268 24.2135 8.14645C24.3073 8.24021 24.36 8.36739 24.36 8.5Z" fill="#19FFDB"/>
<path d="M27.36 5.5C27.36 5.59889 27.3307 5.69556 27.2757 5.77779C27.2208 5.86001 27.1427 5.9241 27.0513 5.96194C26.96 5.99978 26.8594 6.00969 26.7624 5.99039C26.6654 5.9711 26.5764 5.92348 26.5064 5.85355C26.4365 5.78363 26.3889 5.69454 26.3696 5.59755C26.3503 5.50056 26.3602 5.40002 26.398 5.30866C26.4359 5.2173 26.5 5.13921 26.5822 5.08426C26.6644 5.02932 26.7611 5 26.86 5C26.9926 5 27.1198 5.05268 27.2135 5.14645C27.3073 5.24021 27.36 5.36739 27.36 5.5Z" fill="#19FFDB"/>
<path d="M29.36 3.5C29.36 3.59889 29.3307 3.69556 29.2757 3.77779C29.2208 3.86001 29.1427 3.9241 29.0513 3.96194C28.96 3.99978 28.8594 4.00969 28.7624 3.99039C28.6654 3.9711 28.5764 3.92348 28.5064 3.85355C28.4365 3.78363 28.3889 3.69454 28.3696 3.59755C28.3503 3.50056 28.3602 3.40002 28.398 3.30866C28.4359 3.2173 28.5 3.13921 28.5822 3.08426C28.6644 3.02932 28.7611 3 28.86 3C28.9926 3 29.1198 3.05268 29.2135 3.14645C29.3073 3.24021 29.36 3.36739 29.36 3.5Z" fill="#19FFDB"/>
</svg>
