<svg width="74" height="73" viewBox="0 0 74 73" fill="none" xmlns="http://www.w3.org/2000/svg">
<path d="M73.789 8.29755C73.789 6.48102 73.4312 4.78764 72.4292 3.30979C70.8403 0.95445 68.636 0 65.9735 0C56.2972 0.0307887 46.6209 0 36.9446 0C27.2683 0 17.4918 0 7.75823 0C3.03458 0 0 3.279 0 8.35913C0 22.9838 0 37.6084 0 52.233C0 57.0976 3.12047 60.4382 7.64371 60.4536C9.97691 60.4536 12.3101 60.4536 14.6433 60.4536C19.2238 60.4536 23.8186 60.4844 28.3991 60.4228C29.2723 60.4228 29.487 60.8077 29.5729 61.5774C29.6874 62.7782 29.3868 63.9019 28.6568 64.7486C27.526 66.0879 26.252 67.3041 25.0496 68.5818C24.2194 69.4747 23.246 69.9211 22.0437 69.7056C21.6858 69.644 21.2993 69.6748 20.9272 69.7056C20.0683 69.798 19.5101 70.4599 19.4958 71.3374C19.4958 72.2303 20.0397 72.8768 20.9129 72.9692C21.1991 73 21.4997 73 21.786 73C31.8345 73 41.883 73 51.9314 73C52.2034 73 52.4611 73 52.733 72.9846C53.6634 72.9076 54.236 72.2765 54.236 71.3528C54.236 70.4137 53.6205 69.7364 52.6615 69.7056C51.9744 69.6748 51.2873 69.7056 50.6002 69.7056C50.3712 69.7056 50.0849 69.7056 49.9275 69.5671C48.0666 68.0584 46.1486 66.5806 44.9032 64.41C44.4881 63.7018 44.2734 62.7781 44.2162 61.9315C44.1303 60.5922 44.345 60.4536 45.5903 60.4536H46.9358C53.3772 60.4536 59.8185 60.4536 66.2598 60.4536C70.2678 60.4536 73.3023 57.5749 73.7175 53.3568C73.8606 51.9251 73.7747 50.4473 73.7747 49.0002C73.7747 35.4224 73.7747 21.86 73.7747 8.28216L73.789 8.29755ZM3.09184 45.6904C3.09184 33.2518 3.09184 20.8286 3.09184 8.38992C3.09184 5.08014 4.73796 3.30979 7.78685 3.30979C27.1967 3.30979 46.5923 3.30979 66.0022 3.30979C69.0654 3.30979 70.7115 5.08014 70.7115 8.38992C70.7115 20.8286 70.7115 33.2518 70.7115 45.6904V46.6449H3.09184V45.6904ZM45.0177 69.6594H28.757C31.176 67.1501 33.2373 64.5177 32.5359 60.5306H41.1959C41.0814 64.7332 41.2818 65.1951 45.0177 69.6594ZM70.3823 54.342C69.7525 55.9277 68.6216 56.8821 67.0042 57.0822C66.6177 57.1284 66.2169 57.1438 65.8161 57.1438C46.5207 57.1438 27.2254 57.1438 7.92999 57.1438C6.88507 57.1438 5.86877 57.0515 4.96698 56.3895C3.93637 55.6198 3.24929 54.5884 3.1491 53.2337C3.07752 52.1868 3.13478 51.14 3.13478 50.0624H70.6972C70.6829 51.5095 70.9262 52.972 70.3823 54.342Z" fill="#19FFDB"/>
<path d="M23.3033 6.60415C13.899 6.55797 6.19802 14.8093 6.16939 24.9542C6.15508 35.1453 13.7415 43.3659 23.2031 43.3812C32.6647 43.3966 40.3228 35.2376 40.3514 25.062C40.3943 14.9633 32.7077 6.65033 23.289 6.60415H23.3033ZM14.6433 36.854C16.8906 33.6212 19.8107 31.9432 23.518 32.0356C27.0393 32.128 29.7733 33.806 31.8488 36.8386C27.1538 40.9643 19.868 41.303 14.6433 36.854ZM34.1105 34.4525C28.6997 26.7707 17.8783 26.8015 12.4246 34.4371C8.57416 29.942 7.55786 21.0441 12.9543 14.7939C18.3364 8.55923 27.2111 8.26674 32.9081 14.1012C38.7196 20.0434 38.3045 29.2954 34.0961 34.4679L34.1105 34.4525Z" fill="#19FFDB"/>
<path d="M66.36 20.8439C65.9878 20.4283 65.3437 20.3051 64.7425 20.0126C64.7425 18.6271 64.7712 17.1801 64.7425 15.733C64.6566 11.0069 61.3644 7.23533 56.8555 6.66573C52.7903 6.15772 48.6678 9.15962 47.7517 13.5778C47.3652 15.4713 47.4798 17.4726 47.4082 19.4276C47.3939 19.9203 47.3223 20.1666 46.807 20.2897C45.4185 20.6438 44.5597 21.8754 44.5311 23.3994C44.5167 24.3077 44.5167 25.2313 44.5311 26.1396C44.574 28.4487 44.4452 30.7733 44.7315 33.0516C45.4901 38.9785 50.4571 43.3813 56.0968 43.3813C61.7223 43.3813 66.7608 38.9631 67.4193 33.0209C67.7914 29.6957 67.634 26.3089 67.5624 22.953C67.5481 22.2294 66.9039 21.4289 66.3886 20.8439H66.36ZM50.543 15.2558C50.8722 12.0692 53.3056 9.88315 56.1827 9.94473C59.0885 10.0217 61.393 12.3001 61.6507 15.4867C61.7652 16.9799 61.665 18.4886 61.665 20.0588H50.5143C50.5143 18.4116 50.3712 16.8106 50.543 15.2404V15.2558ZM64.399 32.4205C63.9839 36.7925 60.1763 40.133 56.0396 40.1023C51.9171 40.0715 48.1525 36.7463 47.766 32.4205C47.5084 29.4956 47.7088 26.5244 47.7088 23.5225H64.4419C64.4419 23.5225 64.5135 23.6149 64.5135 23.6303C64.4849 26.5552 64.6566 29.5109 64.3847 32.4205H64.399Z" fill="#19FFDB"/>
<path d="M36.873 51.9251C36.0428 51.9251 35.3557 52.6948 35.3557 53.5723C35.3557 54.4652 36.0428 55.1887 36.8873 55.2041C37.7318 55.2041 38.4189 54.5114 38.4476 53.6185C38.4762 52.7102 37.7462 51.9251 36.8873 51.9405L36.873 51.9251Z" fill="#19FFDB"/>
<path d="M30.0738 51.9251C29.2436 51.9251 28.5709 52.6641 28.5709 53.5723C28.5709 54.4806 29.2293 55.1887 30.0738 55.2041C30.9184 55.2041 31.6054 54.5114 31.6341 53.6185C31.6627 52.7102 30.9327 51.9251 30.0738 51.9405V51.9251Z" fill="#19FFDB"/>
<path d="M43.7438 51.9251C42.885 51.8943 42.155 52.6641 42.1693 53.5877C42.1693 54.4806 42.8564 55.1887 43.7152 55.2041C44.574 55.2041 45.2325 54.5114 45.2325 53.5877C45.2325 52.6795 44.5884 51.9405 43.7438 51.9251Z" fill="#19FFDB"/>
<path d="M23.2747 13.5624C20.1256 13.5624 17.549 16.2872 17.5347 19.6586C17.5204 23.0145 20.0969 25.7855 23.246 25.8009C26.4095 25.8009 28.9574 23.0915 28.9574 19.6894C28.9574 16.2872 26.4381 13.5624 23.2747 13.547V13.5624ZM23.289 22.5065C21.8146 22.5065 20.6552 21.3058 20.6266 19.7509C20.5979 18.1499 21.7717 16.8568 23.2604 16.8568C24.6918 16.8568 25.8941 18.1345 25.9085 19.674C25.9085 21.2134 24.749 22.4911 23.3033 22.5065H23.289Z" fill="#19FFDB"/>
<path d="M55.2237 25.9241C53.3056 26.3243 51.8455 28.2486 51.8598 30.8349C51.8885 31.8509 52.3752 33.144 53.5203 33.8983C54.3505 34.4525 54.6368 35.0529 54.5938 36.0689C54.5509 37.1465 55.5099 37.8855 56.426 37.6392C57.2133 37.439 57.657 36.8233 57.5998 35.7764C57.5568 34.9913 57.7716 34.5295 58.43 34.0831C60.1477 32.9439 60.7489 30.6039 59.9616 28.6027C59.1886 26.6168 57.2276 25.5084 55.2237 25.9241ZM56.0396 31.5892C55.4241 31.5738 54.9231 31.0504 54.9087 30.4038C54.8944 29.7265 55.424 29.1569 56.0539 29.1415C56.6837 29.1415 57.2133 29.6957 57.2133 30.373C57.2133 31.0504 56.6837 31.5892 56.0252 31.5738L56.0396 31.5892Z" fill="#19FFDB"/>
</svg>
