<svg width="264" height="264" viewBox="0 0 264 264" fill="none" xmlns="http://www.w3.org/2000/svg">
<g clip-path="url(#clip0_11_207)">
<mask id="mask0_11_207" style="mask-type:luminance" maskUnits="userSpaceOnUse" x="-1" y="-1" width="266" height="266">
<path d="M264.005 -0.00479126H-0.00476074V264.005H264.005V-0.00479126Z" fill="white"/>
</mask>
<g mask="url(#mask0_11_207)">
<path d="M28.8714 54.5832V166.309M13.3938 182.603L110.137 238.462M116.514 260.016L213.266 204.157M235.129 209.417V97.691M250.606 81.3967L153.863 25.538M50.7346 59.8469L147.478 3.98411M114.811 149.189V174.972H174.972V114.81H149.19M132 3.08896C106.504 3.08896 81.5803 10.6495 60.381 24.8144C39.1817 38.9793 22.6589 59.1124 12.9019 82.6678C3.14497 106.223 0.592099 132.143 5.56616 157.149C10.5402 182.155 22.8178 205.125 40.8463 223.154C58.8748 241.182 81.8445 253.46 106.851 258.434C131.857 263.408 157.777 260.855 181.332 251.098C204.888 241.341 225.021 224.818 239.186 203.619C253.351 182.42 260.911 157.496 260.911 132C260.91 97.8109 247.328 65.0226 223.153 40.8473C198.977 16.6721 166.189 3.09005 132 3.08896ZM149.19 89.0323H89.0284V149.189H149.19V89.0323Z" stroke="#19FFDB" stroke-width="6.18773" stroke-miterlimit="10" stroke-linejoin="round"/>
</g>
</g>
<defs>
<clipPath id="clip0_11_207">
<rect width="264.01" height="264.01" fill="white" transform="translate(-0.00476074 -0.00479126)"/>
</clipPath>
</defs>
</svg>
