<?xml version="1.0" encoding="utf-8"?>
<!-- Generator: Adobe Illustrator 26.0.3, SVG Export Plug-In . SVG Version: 6.00 Build 0)  -->
<svg version="1.0" id="Layer_1" xmlns="http://www.w3.org/2000/svg" xmlns:xlink="http://www.w3.org/1999/xlink" x="0px" y="0px"
	 viewBox="0 0 903.5 609.9" style="enable-background:new 0 0 903.5 609.9;" xml:space="preserve">
<style type="text/css">
	.st0{opacity:0.5;fill:#1E1D2A;enable-background:new    ;}
	.st1{fill:#1E1D2A;}
</style>
<path class="st0" d="M664.7,312.6c-2.4,0-4.3-1.9-4.3-4.3v-57.5c0-2.4,1.9-4.3,4.3-4.3c2.4,0,4.3,1.9,4.3,4.3c0,0,0,0,0,0v57.5
	C669,310.7,667.1,312.6,664.7,312.6z M714,357.5c-2.4,0-4.3-1.9-4.3-4.3l-0.3-147.8c0-2.4,1.9-4.3,4.3-4.3c2.4,0,4.3,1.9,4.3,4.3
	c0,0,0,0,0,0l0.3,147.8C718.3,355.6,716.4,357.5,714,357.5L714,357.5z M689.6,345.5c-2.4,0-4.3-1.9-4.3-4.3L685,217.8
	c0-2.4,1.9-4.3,4.3-4.3c2.4,0,4.3,1.9,4.3,4.3c0,0,0,0,0,0l0.4,123.4C693.9,343.6,692,345.5,689.6,345.5
	C689.7,345.5,689.6,345.5,689.6,345.5L689.6,345.5z"/>
<path class="st1" d="M87,281.9h26.5v129.6H87V281.9z M220,322.9c-3.2-3.5-7.2-6.2-11.6-8c-4.9-1.9-10.1-2.9-15.3-2.8
	c-5.5-0.1-11,0.9-16.1,3.1c-4.5,1.9-8.7,4.7-12.2,8.2v-9h-24.4v97.2h26.5v-56.8c0-5.6,1.7-10.2,5.1-13.6c3.4-3.4,7.9-5.2,13.4-5.2
	s9.9,1.8,13.1,5.2c3.2,3.4,4.9,8,4.9,13.6v56.8h26.3v-60.3c0.1-5.4-0.8-10.9-2.6-16C225.7,330.7,223.2,326.5,220,322.9L220,322.9z
	 M293,369.2l-24.4-55h-28.1l48.4,99.6h8.6l48.2-99.6h-27.9L293,369.2z M361.1,314.2h26.5v97.2h-26.5V314.2z M442.6,343.9
	c2.3-2.4,5-4.3,8-5.6c3.2-1.4,6.7-2.1,10.3-2.1c5.5,0,10.1,1.3,13.7,3.9c3.8,2.8,7.2,6.3,9.8,10.2l18.5-14.3
	c-4.1-7.2-9.9-13.2-17-17.5c-7.1-4.3-15.5-6.5-25.2-6.5c-7-0.1-14,1.3-20.5,3.9c-6.2,2.5-11.8,6.1-16.6,10.7
	c-9.8,9.4-15.3,22.4-15.1,36c-0.1,13.7,5.3,26.8,15.1,36.3c4.8,4.6,10.4,8.3,16.6,10.8c6.5,2.7,13.5,4,20.5,3.9
	c9.7,0,18.1-2.2,25.2-6.6c7.1-4.3,12.9-10.3,16.8-17.6l-18.5-14.2c-2.6,3.9-5.9,7.3-9.6,10c-3.6,2.6-8.2,3.9-13.7,3.9
	c-3.5,0.1-7-0.6-10.3-2c-3-1.3-5.7-3.2-8-5.6c-2.3-2.4-4.1-5.3-5.2-8.5c-1.3-3.4-1.9-7-1.9-10.6c-0.1-3.6,0.6-7.2,1.9-10.5
	C438.6,349.2,440.4,346.3,442.6,343.9L442.6,343.9z M558.3,289.7h-26.5v24.5h-19.4v22.4H532v74.8h26v-74.9h23.9v-22.4h-23.6V289.7z
	 M597.3,314.2h26.5v97.2h-26.4L597.3,314.2z M610.7,298.2c4.4,0,8.7-1.7,11.9-4.8c3.3-3,5.1-7.2,5-11.6c0.1-4.5-1.7-8.8-5-11.8
	c-3.2-3.1-7.4-4.8-11.9-4.8c-4.5-0.1-8.9,1.6-12.1,4.7c-3.3,3-5.1,7.3-5,11.8c-0.1,4.4,1.7,8.6,5,11.6
	C601.8,296.6,606.2,298.3,610.7,298.2L610.7,298.2z M374.5,265.4c-4.5-0.1-8.9,1.6-12.1,4.7c-3.3,3-5.1,7.3-5,11.8
	c-0.1,4.4,1.7,8.6,5,11.6c3.3,3.1,7.6,4.8,12.1,4.7c4.4,0,8.7-1.7,11.9-4.7c3.3-3,5.1-7.2,5-11.6c0.1-4.5-1.7-8.8-5-11.8
	C383.2,267,378.9,265.3,374.5,265.4z M713.8,321.5c-2.4,0-4.3-1.9-4.3-4.3v-75.3c0.1-2.4,2.1-4.2,4.5-4.1c2.2,0.1,4,1.9,4.1,4.1
	v75.3C718.1,319.6,716.2,321.5,713.8,321.5C713.9,321.5,713.8,321.5,713.8,321.5L713.8,321.5z"/>
<path class="st0" d="M738.9,361.7c-2.4,0-4.3-1.9-4.3-4.3l-0.3-157.2c0.1-2.4,2.1-4.2,4.5-4.1c2.2,0.1,4,1.9,4.1,4.1l0.3,157.1
	C743.2,359.8,741.3,361.7,738.9,361.7C738.9,361.7,738.9,361.7,738.9,361.7z"/>
<path class="st1" d="M664.7,297.4c-2.4,0-4.3-1.9-4.3-4.3c0,0,0,0,0,0v-26.7c0-2.4,1.9-4.3,4.3-4.3c2.4,0,4.3,1.9,4.3,4.3
	c0,0,0,0,0,0v26.8C669,295.5,667.1,297.4,664.7,297.4z M689.4,311.8c-2.4,0-4.3-1.9-4.3-4.3v-55.9c-0.1-2.4,1.7-4.4,4.1-4.5
	c2.4-0.1,4.4,1.7,4.5,4.1c0,0.1,0,0.3,0,0.4v55.9C693.7,309.9,691.8,311.8,689.4,311.8C689.4,311.8,689.4,311.8,689.4,311.8
	L689.4,311.8z M738.7,331c-2.4,0-4.3-1.9-4.3-4.3c0,0,0,0,0,0v-94c0-2.4,1.9-4.3,4.3-4.3c0,0,0,0,0,0c2.4,0,4.3,1.9,4.3,4.2
	c0,0,0,0.1,0,0.1v94.1C743,329.2,741.1,331,738.7,331C738.7,331,738.7,331,738.7,331L738.7,331z"/>
<path class="st0" d="M763.6,357.5c-2.4,0-4.3-1.9-4.3-4.3L759,205.4c-0.1-2.4,1.7-4.4,4.1-4.5c2.4-0.1,4.4,1.7,4.5,4.1
	c0,0.1,0,0.3,0,0.4l0.3,147.8C767.9,355.6,766,357.5,763.6,357.5C763.6,357.5,763.6,357.5,763.6,357.5z"/>
<path class="st1" d="M763.4,340.1c-2.4,0-4.3-1.9-4.3-4.3V223.4c-0.1-2.4,1.7-4.4,4.1-4.5c2.4-0.1,4.4,1.7,4.5,4.1
	c0,0.1,0,0.3,0,0.4v112.4C767.7,338.2,765.8,340.1,763.4,340.1z M788,343.1c-2.4,0-4.3-1.9-4.3-4.3V220.4c0-2.4,1.9-4.3,4.3-4.3
	c2.4,0,4.3,1.9,4.3,4.3c0,0,0,0,0,0v118.5C792.3,341.2,790.4,343.1,788,343.1z M812.2,307.3c-2.4,0-4.3-1.9-4.3-4.3v-46.7
	c0.1-2.4,2.1-4.2,4.5-4.1c2.2,0.1,4,1.9,4.1,4.1v46.6C816.5,305.3,814.6,307.3,812.2,307.3C812.2,307.3,812.2,307.3,812.2,307.3z"/>
</svg>
