<svg width="73" height="73" viewBox="0 0 73 73" fill="none" xmlns="http://www.w3.org/2000/svg">
<path d="M30.3425 37.5027C30.3425 37.1369 30.3425 36.771 30.3425 36.4052C30.3425 36.1072 30.3425 35.7955 30.3425 35.4975V33.6007C30.3425 33.3026 30.3425 32.991 30.3425 32.6929C30.3425 32.2865 30.3425 31.8935 30.3425 31.4871H30.9872C30.9872 31.8935 30.9872 32.3 30.9872 32.6929C30.9872 32.991 30.9872 33.2891 30.9872 33.6007V35.511C30.9872 35.8091 30.9872 36.1207 30.9872 36.4188C30.9872 36.7846 30.9872 37.1504 30.9872 37.5162H30.3425V37.5027Z" fill="#19FFDB"/>
<path d="M69.1314 10.4867C62.7869 10.4867 56.4425 10.4867 50.098 10.4867H49.2856V11.7603H50.1238C56.4167 11.7603 62.7096 11.7603 69.0024 11.7603C70.8594 11.7603 71.4525 12.37 71.4525 14.2939C71.4525 28.249 71.4525 42.1905 71.4525 56.1455C71.4525 58.0288 70.8465 58.6791 69.0669 58.6791C47.3384 58.6791 25.6228 58.6791 3.89433 58.6791C2.32111 58.6791 1.66345 57.9881 1.66345 56.3081C1.66345 42.2582 1.66345 28.1948 1.66345 14.1449C1.66345 12.4242 2.30821 11.7603 3.9588 11.7603C10.3033 11.7603 16.6477 11.7603 22.9922 11.7603H23.8304V10.4867H23.1211C16.6735 10.4867 10.2388 10.5274 3.79117 10.4596C1.96004 10.4325 0.309448 12.0313 0.309448 14.1584C0.322343 28.1812 0.322343 42.2176 0.309448 56.2404C0.309448 58.4352 1.99873 59.9798 3.82985 59.9798C25.597 59.9391 47.3771 59.9527 69.1443 59.9527C71.5041 59.9527 72.6647 58.7333 72.6647 56.2539C72.6647 42.2447 72.6647 28.249 72.6647 14.2397C72.6647 11.6926 71.5299 10.4867 69.1314 10.4867Z" fill="#19FFDB"/>
<path d="M3.82989 60.3049C2.82406 60.3049 1.84402 59.8714 1.12189 59.1127C0.399753 58.3539 0 57.3242 0 56.2268C0.0128952 42.204 0.0128952 28.1677 0 14.1449C0 13.0474 0.399753 12.0313 1.13478 11.2726C1.84402 10.5409 2.79827 10.1209 3.76541 10.1209H3.8041C8.47218 10.1751 13.2176 10.1616 17.8083 10.1616C19.5879 10.1616 21.3545 10.1616 23.1341 10.1616H24.1657V12.1126H3.97174C2.50168 12.1126 1.99876 12.6274 1.99876 14.1584V56.3217C1.99876 57.7985 2.51457 58.3539 3.90726 58.3539H69.0798C70.6789 58.3539 71.1431 57.8662 71.1431 56.1591V14.2803C71.1431 12.5597 70.6917 12.0855 69.0154 12.0855H48.9762V10.1345H69.1314C71.7363 10.1345 73 11.4758 73 14.2262V56.2404C73 58.923 71.7105 60.2778 69.1572 60.2778H54.5856C37.667 60.2778 20.7613 60.2778 3.84278 60.3049H3.82989ZM3.76541 10.7848C2.96591 10.7848 2.1793 11.1371 1.58612 11.7468C0.980039 12.3835 0.644762 13.2371 0.644762 14.1449C0.657658 28.1677 0.657658 42.204 0.644762 56.2268C0.644762 57.1481 0.980039 58.0017 1.57322 58.6385C2.1664 59.2617 2.9917 59.6275 3.82989 59.6275C20.7485 59.5869 37.6541 59.5869 54.5727 59.6004H69.1443C71.3236 59.6004 72.3423 58.5301 72.3423 56.2404V14.2397C72.3423 11.8822 71.3494 10.8255 69.1185 10.8255H49.608V11.4216H69.0025C71.0528 11.4216 71.7749 12.1803 71.7749 14.2939V56.1455C71.7749 58.2185 71.0141 59.0178 69.0669 59.0178H3.92016C2.15351 59.0178 1.3669 58.1778 1.3669 56.3081V14.1313C1.3669 12.221 2.15351 11.408 3.98463 11.408H23.5338V10.8119H23.147C21.3674 10.8119 19.6008 10.8119 17.8341 10.8119C13.2434 10.8119 8.48507 10.8255 3.81699 10.7713H3.77831L3.76541 10.7848Z" fill="#19FFDB"/>
<path d="M5.26131 13.0068C3.6623 13.0068 2.86279 13.8604 2.86279 15.4862C2.90148 26.9212 2.91437 38.3698 2.86279 49.8048C2.86279 51.4713 3.63651 52.3248 5.29999 52.3248C26.1387 52.3248 46.9774 52.3248 67.8162 52.3248C69.4539 52.3248 70.0857 51.6474 70.0857 49.9267C70.0857 38.4375 70.0857 26.9483 70.0857 15.4456C70.0857 13.6571 69.4668 13.0068 67.7646 13.0068C61.8714 13.0068 55.9912 13.0068 50.0981 13.0068H49.2728V14.2804H50.1755C56.017 14.2804 61.8586 14.2804 67.6872 14.2804C68.7962 14.2804 68.8736 14.3617 68.8736 15.4727C68.8736 26.9348 68.8736 38.4104 68.8736 49.8725C68.8736 50.97 68.7833 51.0648 67.7646 51.0648C46.9516 51.0648 26.1387 51.0648 5.31289 51.0648C4.33285 51.0648 4.22969 50.9564 4.22969 49.9267C4.22969 38.4375 4.22969 26.9483 4.22969 15.4456C4.22969 14.3617 4.31996 14.2804 5.36447 14.2804C11.2318 14.2804 17.0991 14.2804 22.9536 14.2804H23.8305V13.0068H23.1341C17.1636 13.0068 11.206 13.0068 5.23552 13.0068H5.26131Z" fill="#19FFDB"/>
<path d="M5.31281 52.6771C4.39724 52.6771 3.7009 52.4332 3.23667 51.9319C2.77244 51.4442 2.55322 50.7396 2.55322 49.8048C2.6048 38.5188 2.6048 26.9754 2.55322 15.4862C2.55322 14.5784 2.78534 13.8739 3.23667 13.3997C3.7009 12.912 4.38435 12.6681 5.26122 12.6681C9.58113 12.6681 13.9139 12.6681 18.2338 12.6681H24.1657V14.6191H5.39018C4.84858 14.6191 4.57778 14.8946 4.57778 15.4455V49.9267C4.57778 50.4596 4.83138 50.7261 5.3386 50.7261H67.7903C68.3147 50.7261 68.5769 50.4416 68.5769 49.8725V15.4726C68.5769 14.9036 68.2889 14.6191 67.7129 14.6191H48.9632V12.6681H67.7774C69.6472 12.6681 70.4209 13.4674 70.4209 15.4455V49.9267C70.4209 51.8506 69.6472 52.6635 67.829 52.6635H52.9478C37.0738 52.6635 21.1869 52.6635 5.31281 52.6635V52.6771ZM5.26122 13.3455C4.56488 13.3455 4.03618 13.5216 3.7009 13.8875C3.36562 14.2397 3.19799 14.7817 3.19799 15.4997C3.24957 26.9889 3.24957 38.5324 3.19799 49.8183C3.19799 50.55 3.36562 51.1055 3.7009 51.4577C4.03618 51.81 4.59067 51.9997 5.31281 51.9997C21.1869 51.9997 37.0738 51.9997 52.9478 51.9997H67.829C69.2861 51.9997 69.7762 51.4848 69.7762 49.9403V15.4455C69.7762 13.8333 69.3119 13.3455 67.7774 13.3455H49.608V13.9416H67.7129C68.9895 13.9416 69.2217 14.172 69.2217 15.4726V49.8725C69.2217 51.1596 68.9895 51.4035 67.7903 51.4035H5.3386C4.17802 51.4035 3.93301 51.1461 3.93301 49.9267V15.4591C3.93301 14.1855 4.16513 13.9552 5.39018 13.9552H23.5338V13.3591H18.2467C13.9268 13.3591 9.59403 13.3591 5.27412 13.3591L5.26122 13.3455Z" fill="#19FFDB"/>
<path d="M20.7227 25.3902C20.7227 31.9342 20.7227 38.4917 20.7227 45.0357C20.7227 46.526 21.4319 47.2577 22.8633 47.2577C31.9415 47.2577 41.0198 47.2577 50.1109 47.2577C51.8002 47.2577 52.445 46.5938 52.445 44.8325C52.445 38.4375 52.445 32.0561 52.445 25.6612C52.445 23.7915 51.8389 23.1682 50.0336 23.1682C45.5331 23.1682 41.0327 23.1682 36.5193 23.1682C31.9673 23.1682 27.4153 23.1682 22.8633 23.1682C21.419 23.1682 20.7227 23.8863 20.7227 25.3902ZM51.0781 25.5799C51.0781 32.0019 51.0781 38.4104 51.0781 44.8325C51.0781 45.9028 50.9878 45.9976 49.9433 45.9976C40.994 45.9976 32.0318 45.9976 23.0825 45.9976C21.9993 45.9976 21.9348 45.9163 21.9348 44.7647C21.9348 38.3698 21.9348 31.9884 21.9348 25.5934C21.9348 24.5231 22.0251 24.4283 23.0696 24.4283C27.5442 24.4283 32.0189 24.4283 36.5064 24.4283C40.994 24.4283 45.5073 24.4283 50.0207 24.4283C50.9878 24.4283 51.091 24.5367 51.091 25.5799H51.0781Z" fill="#19FFDB"/>
<path d="M36.4806 47.5964C31.9415 47.5964 27.4024 47.5964 22.8633 47.5964C21.2514 47.5964 20.4003 46.7157 20.4003 45.0357C20.4003 38.4917 20.4003 31.9342 20.4003 25.3902C20.4003 23.7102 21.2514 22.8295 22.8633 22.8295C26.1129 22.8295 29.3625 22.8295 32.625 22.8295H50.0335C52.0065 22.8295 52.7673 23.6289 52.7673 25.6612V44.8325C52.7673 46.7699 51.9678 47.5964 50.1109 47.5964C45.5718 47.5964 41.0327 47.5964 36.4935 47.5964H36.4806ZM28.7177 23.4934C26.7576 23.4934 24.8104 23.4934 22.8504 23.4934C21.5737 23.4934 21.0321 24.0625 21.0321 25.3767C21.0321 31.9206 21.0321 38.4782 21.0321 45.0221C21.0321 46.3228 21.5995 46.9054 22.8504 46.9054C31.9286 46.9054 41.0069 46.9054 50.098 46.9054C51.6197 46.9054 52.1097 46.4041 52.1097 44.8189V25.6476C52.1097 23.9676 51.6455 23.4934 50.0206 23.4934H28.7177ZM49.9304 46.3228H23.0696C21.8187 46.3228 21.5995 46.0925 21.5995 44.7512V25.5799C21.5995 24.3199 21.8316 24.076 23.0567 24.076H49.9949C51.1425 24.076 51.3875 24.347 51.3875 25.5663V44.8189C51.3875 46.0789 51.1554 46.3228 49.9304 46.3228ZM33.1279 24.767H23.0567C22.5151 24.767 22.2443 25.0425 22.2443 25.5934V44.7647C22.2443 45.3608 22.5194 45.6589 23.0696 45.6589H49.9304C50.472 45.6589 50.7428 45.3834 50.7428 44.8325V25.5799C50.7428 25.0379 50.4935 24.767 49.9949 24.767H33.1279Z" fill="#19FFDB"/>
<path d="M49.2728 66.2934C47.9704 66.2393 46.6551 66.2935 45.3527 66.2799C45.1076 66.2799 44.8755 66.2528 44.6434 66.2528C44.3984 64.7083 44.1534 63.2586 43.9213 61.7818L42.7478 61.9443C42.967 63.4076 43.1863 64.8031 43.4055 66.2393H29.7623C29.9815 64.7896 30.2007 63.394 30.42 61.9443L29.1691 61.7547C28.8854 63.2857 28.6017 64.7625 28.318 66.2799C26.8222 66.2799 25.365 66.2664 23.9208 66.2799C22.2702 66.307 21.0451 67.3096 20.7743 68.8812C20.7098 69.2877 20.7227 69.7212 20.7227 70.1413C20.7227 71.9568 21.3417 72.6071 23.0826 72.6071C32.0319 72.6071 40.9941 72.6071 49.9434 72.6071C50.1755 72.6071 50.3947 72.6071 50.6268 72.5935C51.8132 72.4581 52.4193 71.7671 52.445 70.5071C52.445 70.2225 52.445 69.9245 52.445 69.64C52.5095 67.6077 51.0652 66.3612 49.2857 66.2799L49.2728 66.2934ZM51.0137 70.8864C50.9105 71.1303 50.4076 71.3335 50.0981 71.3335C46.049 71.3606 41.9999 71.3471 37.9508 71.3471H36.5194C32.0448 71.3471 27.5701 71.3471 23.0826 71.3471C22.0123 71.3471 21.9994 71.2658 21.922 70.1142C21.793 68.3799 22.6699 67.5264 24.3721 67.5264C32.5477 67.5264 40.7233 67.5264 48.8988 67.5264C50.6526 67.5264 51.71 69.1522 51.0266 70.8593L51.0137 70.8864Z" fill="#19FFDB"/>
<path d="M50.2528 72.9594C50.2528 72.9594 50.1496 72.9594 50.098 72.9594H23.0825C22.0767 72.9594 21.4448 72.7561 21.0192 72.309C20.5937 71.8619 20.4003 71.1845 20.4003 70.1548V69.9245C20.4003 69.5722 20.4003 69.2064 20.4518 68.8406C20.7484 67.1199 22.1024 65.9818 23.9078 65.9547C24.9136 65.9412 25.9194 65.9547 26.9382 65.9547H28.0471L28.8982 61.3889L30.7809 61.6734L30.1233 65.9141H43.0056L42.3609 61.6734L44.1662 61.416L44.9012 65.9547C45.0818 65.9547 45.2752 65.9683 45.4557 65.9683C45.8426 65.9683 46.2166 65.9683 46.6034 65.9683C47.4674 65.9683 48.3701 65.9547 49.2598 65.9954C51.3747 66.0902 52.806 67.6212 52.7287 69.7077C52.7287 69.8567 52.7287 70.0193 52.7287 70.1683C52.7287 70.3038 52.7287 70.4393 52.7287 70.5748C52.7029 72.011 51.9807 72.8374 50.6267 72.9865C50.4978 73 50.3559 73 50.227 73L50.2528 72.9594ZM49.9433 72.2819H50.098C50.2528 72.2819 50.4204 72.2819 50.588 72.2819C51.6068 72.1735 52.0968 71.618 52.1097 70.5206C52.1097 70.3987 52.1097 70.2632 52.1097 70.1412C52.1097 69.9787 52.1097 69.8161 52.1097 69.64C52.1742 67.6619 50.7299 66.6999 49.2469 66.6322C48.3701 66.5915 47.4803 66.6051 46.6163 66.6051C46.1908 66.6051 45.7523 66.6051 45.3268 66.6051C45.1591 66.6051 44.9915 66.6051 44.8239 66.578L44.3467 66.5509L43.6246 62.134L43.083 62.2153L43.7407 66.5644H29.3367L30.0072 62.2153L29.3883 62.1205L28.5501 66.5644L28.2793 66.6051H26.8995C25.8807 66.6051 24.8749 66.6051 23.882 66.6051C22.3732 66.6322 21.29 67.5128 21.045 68.9354C20.9934 69.2335 20.9934 69.5587 20.9934 69.8974V70.1412C20.9934 70.9813 21.1353 71.5097 21.419 71.8213C21.7156 72.1329 22.2314 72.2819 23.0309 72.2819H49.8917H49.9433ZM42.8638 71.6858C42.0385 71.6858 41.2261 71.6858 40.4008 71.6858H23.0696C21.8059 71.6858 21.6769 71.4284 21.5866 70.1548C21.5222 69.2335 21.7156 68.5154 22.154 68.0006C22.6311 67.4722 23.3662 67.2012 24.3462 67.2012C29.672 67.2012 35.0106 67.2012 40.3363 67.2012H48.873C49.8272 67.2012 50.6525 67.6348 51.1296 68.3935C51.6068 69.1387 51.6584 70.1006 51.2973 71.0084C51.1296 71.4284 50.4849 71.6587 50.0851 71.6587C47.6737 71.6722 45.2623 71.6858 42.8638 71.6858ZM36.5064 71.0084H40.4008C43.6246 71.0084 46.8613 71.0084 50.0851 70.9948C50.3301 70.9948 50.6525 70.8458 50.7041 70.7509C50.9878 70.06 50.9362 69.3419 50.588 68.7728C50.227 68.2038 49.608 67.8786 48.873 67.8786H40.3363C34.9977 67.8786 29.672 67.8786 24.3333 67.8786C23.5338 67.8786 22.9664 68.0819 22.6183 68.4612C22.2959 68.827 22.1669 69.369 22.2185 70.0871C22.2615 70.7013 22.5409 71.0084 23.0567 71.0084H36.4935H36.5064Z" fill="#19FFDB"/>
<path d="M25.7002 21.2444H27.0542V20.3231C27.0542 17.2882 27.0284 14.2533 27.0542 11.2048C27.08 8.80674 27.7506 6.69316 29.3754 4.89119C31.0904 2.99439 33.1279 1.89695 35.5651 1.65308C40.1558 1.19243 43.9857 3.82086 45.546 7.99382C45.9071 8.96932 46.036 10.1074 46.0489 11.1642C46.1134 14.2262 46.0747 17.2882 46.0747 20.3501V21.2037H47.2095C47.2353 21.0953 47.274 21.0276 47.274 20.9598C47.274 17.4507 47.3642 13.9281 47.2353 10.419C47.145 7.96673 46.2939 5.8125 44.6047 3.96989C42.6833 1.86986 40.3879 0.664031 37.667 0.37951C33.9403 -0.0133989 30.768 1.28727 28.2664 4.17312C26.4868 6.21896 25.7518 8.76609 25.7002 11.4894C25.6357 14.443 25.6873 17.4101 25.6873 20.3637V21.2173L25.7002 21.2444Z" fill="#19FFDB"/>
<path d="M27.3766 21.5831H25.3778V20.3908C25.3778 19.4966 25.3778 18.5888 25.3778 17.6946C25.3778 15.6623 25.3521 13.5758 25.4036 11.5165C25.4681 8.45447 26.3708 5.92088 28.0601 3.96988C30.652 0.989191 33.9145 -0.325024 37.7315 0.0678857C40.5298 0.352406 42.8638 1.57178 44.8626 3.75311C46.5776 5.62281 47.4932 7.87188 47.5835 10.419C47.6737 12.912 47.6479 15.4591 47.635 17.9114C47.635 18.9275 47.6222 19.9572 47.6222 20.9734C47.6222 21.0818 47.5964 21.1631 47.5706 21.2444L47.5061 21.4882L47.2353 21.556H45.7781V20.3637C45.7781 19.4966 45.7781 18.6295 45.7781 17.7624C45.7781 15.6081 45.791 13.3726 45.7523 11.1777C45.7265 9.93127 45.5589 8.92867 45.2623 8.11576C43.7149 3.95633 39.9237 1.54468 35.6167 1.97824C33.2697 2.22211 31.3226 3.23826 29.6333 5.12151C28.1503 6.76089 27.4282 8.75254 27.4024 11.2048C27.3766 13.3049 27.3895 15.4049 27.4024 17.5049V21.5695L27.3766 21.5831ZM26.0226 20.9056H26.7318V17.5185C26.7318 15.4185 26.7318 13.3049 26.7318 11.2048C26.7576 8.57641 27.5442 6.43573 29.1433 4.66086C30.9099 2.69631 33.0634 1.57178 35.5393 1.31436C40.1429 0.853705 44.192 3.42794 45.8555 7.87188C46.1779 8.75254 46.3584 9.82288 46.3842 11.1642C46.4358 13.3591 46.4229 15.5946 46.41 17.7624C46.41 18.6295 46.41 19.4966 46.41 20.3637V20.8785H46.9516C46.9645 19.8624 46.9774 18.8869 46.9774 17.8978C46.9903 15.4455 47.0161 12.9255 46.9258 10.4326C46.8484 8.04801 45.9845 5.96153 44.3854 4.20021C42.4898 2.12727 40.2848 0.989191 37.6541 0.718219C34.0435 0.338858 30.9744 1.58533 28.5243 4.40344C26.9382 6.21895 26.1 8.61705 26.0355 11.5029C25.9839 13.5487 25.9968 15.6488 26.0097 17.6675C26.0097 18.5753 26.0097 19.4695 26.0097 20.3772V20.8921L26.0226 20.9056Z" fill="#19FFDB"/>
<path d="M42.3092 21.2173H43.5214V20.4585C43.5214 17.4508 43.5085 14.443 43.5214 11.4216C43.5343 8.88804 42.58 6.90995 40.5942 5.4467C37.5767 3.21118 33.0762 3.92925 30.8712 7.03188C30.0072 8.25126 29.6074 9.66031 29.6074 11.1778C29.6074 14.321 29.6074 17.4643 29.6074 20.6076C29.6074 20.8108 29.6332 21.014 29.659 21.2173H30.8196V20.3366C30.8196 17.383 30.8196 14.4159 30.8196 11.4623C30.8196 9.70096 31.2967 8.19706 32.6249 6.99124C34.3142 5.4467 36.8932 4.85056 38.9565 5.948C41.0068 7.03188 42.3092 8.73901 42.3092 11.3132C42.3092 14.321 42.3092 17.3288 42.3092 20.3502V21.2308V21.2173Z" fill="#19FFDB"/>
<path d="M31.1549 21.5695H29.3753L29.3366 21.0818C29.3237 20.9327 29.3109 20.7837 29.3109 20.6346C29.3109 17.4914 29.3109 14.3481 29.3109 11.2048C29.3109 9.55189 29.7622 8.08864 30.6391 6.85572C32.9602 3.59051 37.6154 2.83179 40.8005 5.18924C42.8767 6.73378 43.8825 8.77962 43.8567 11.4487C43.8438 13.5487 43.8567 15.6488 43.8567 17.7623V21.583H42.0127V17.5998C42.0127 15.5133 42.0127 13.4268 42.0127 11.3268C42.0127 9.09124 40.9553 7.38412 38.8404 6.27313C37.0222 5.31118 34.5592 5.71764 32.8699 7.27573C31.7094 8.33252 31.1678 9.67383 31.1807 11.5029C31.1807 13.5758 31.1807 15.6488 31.1807 17.7217V21.6101L31.1549 21.5695ZM29.9685 20.8921H30.5101V17.6811C30.5101 15.6081 30.5101 13.5352 30.5101 11.4758C30.5101 9.4435 31.1162 7.93961 32.4315 6.74733C34.3142 5.02666 37.0738 4.56601 39.1241 5.6499C41.4711 6.89637 42.6574 8.79317 42.6445 11.3132C42.6445 13.3997 42.6445 15.4862 42.6445 17.5727V20.8921H43.2119V17.7488C43.2119 15.6488 43.2119 13.5352 43.2119 11.4351C43.2248 8.9964 42.3222 7.14024 40.4266 5.73119C37.5638 3.60406 33.231 4.32213 31.1549 7.24863C30.3683 8.35962 29.9556 9.68738 29.9556 11.2048C29.9556 14.3481 29.9556 17.4914 29.9556 20.6346C29.9556 20.7295 29.9556 20.8108 29.9685 20.9056V20.8921Z" fill="#19FFDB"/>
<path d="M41.5098 33.0587C38.7373 31.8936 35.9777 30.7013 33.1923 29.5767C31.8641 29.0483 30.6906 29.9967 30.6648 31.4735C30.652 32.5032 30.6648 33.5329 30.6648 34.5626C30.6648 35.5381 30.6648 36.5136 30.6648 37.4891C30.6777 39.1556 31.8641 40.0092 33.3729 39.4537C34.0563 39.1962 34.7397 38.9388 35.4232 38.6678C37.4606 37.8549 39.4981 37.0285 41.5355 36.2156C42.219 35.9446 42.464 35.362 42.464 34.6575C42.464 33.9123 42.219 33.3297 41.5098 33.0316V33.0587ZM40.4395 35.3484C37.9636 36.351 35.4619 37.313 32.9731 38.2614C32.2381 38.5459 31.877 38.2614 31.877 37.4214C31.877 36.4459 31.877 35.4704 31.877 34.4949C31.877 33.5465 31.877 32.5981 31.877 31.6497C31.877 30.8503 32.2768 30.5658 32.9989 30.8368C33.8887 31.1755 34.7784 31.5413 35.6682 31.9071C37.2801 32.571 38.8791 33.2349 40.4781 33.9394C40.736 34.0478 41.0971 34.4136 41.0713 34.6033C41.0326 34.8742 40.7231 35.2265 40.4523 35.3349L40.4395 35.3484Z" fill="#19FFDB"/>
<path d="M32.496 39.982C32.0447 39.982 31.6191 39.8466 31.271 39.5891C30.6907 39.1556 30.3554 38.4104 30.3554 37.5027C30.3554 36.8388 30.3554 36.1613 30.3554 35.4839V33.5871C30.3554 32.8826 30.3554 32.1781 30.3554 31.4735C30.3554 30.62 30.7165 29.8883 31.3226 29.4548C31.8899 29.0483 32.625 28.9806 33.3213 29.2516C35.1911 29.9967 37.0609 30.7961 38.8792 31.5684C39.7947 31.9613 40.7232 32.3542 41.6387 32.7335C42.4254 33.0587 42.8122 33.709 42.7993 34.671C42.7993 35.6194 42.3996 36.2426 41.6516 36.5407L39.3305 37.4756C38.0668 37.9904 36.803 38.4917 35.5393 38.993C34.8558 39.264 34.1724 39.5214 33.489 39.7788C33.1537 39.9008 32.8184 39.9685 32.496 39.9685V39.982ZM32.4702 29.7664C32.1865 29.7664 31.9157 29.8477 31.6836 30.0103C31.2581 30.3083 31.0131 30.8503 31.0002 31.4735C31.0002 32.1781 31.0002 32.869 31.0002 33.5736V35.4839C31.0002 36.1478 31.0002 36.8252 31.0002 37.4891C31.0002 38.1801 31.2323 38.722 31.6449 39.0201C32.0576 39.3317 32.6379 39.3724 33.2826 39.142C33.9661 38.8846 34.6495 38.6272 35.3201 38.3562C36.5838 37.8549 37.8475 37.3401 39.1113 36.8388L41.4324 35.9039C41.9224 35.7007 42.1546 35.3213 42.1546 34.6574C42.1546 33.9936 41.9224 33.5736 41.3937 33.3568C40.4653 32.9774 39.5497 32.5845 38.6342 32.1916C36.8159 31.4193 34.9461 30.62 33.0892 29.8883C32.8829 29.807 32.6637 29.7664 32.4702 29.7664ZM32.5089 38.7085C32.3155 38.7085 32.135 38.6543 31.9931 38.5459C31.7094 38.3427 31.5676 37.9633 31.5676 37.4349C31.5676 36.7575 31.5676 36.0665 31.5676 35.3755V33.5871C31.5676 32.9368 31.5676 32.2864 31.5676 31.6497C31.5676 31.1348 31.7223 30.769 31.9931 30.5658C32.2768 30.3625 32.6508 30.349 33.115 30.5251C34.0177 30.8638 34.8945 31.2297 35.7843 31.609L36.4291 31.88C37.8218 32.4626 39.2144 33.0452 40.5942 33.6549C40.8521 33.7768 41.4582 34.2374 41.3808 34.6845C41.3164 35.1181 40.9037 35.5381 40.5556 35.6736C37.9636 36.7168 35.3201 37.733 33.0892 38.5865C32.87 38.6678 32.6766 38.7085 32.496 38.7085H32.5089ZM32.5347 31.0942C32.4573 31.0942 32.4058 31.1077 32.3671 31.1348C32.2768 31.2026 32.2123 31.3922 32.2123 31.6632C32.2123 32.3135 32.2123 32.9503 32.2123 33.6007V35.3891C32.2123 36.0665 32.2123 36.7575 32.2123 37.4349C32.2123 37.733 32.2639 37.9362 32.3671 38.004C32.4573 38.0717 32.6379 38.0446 32.8829 37.9633C35.1266 37.1097 37.7573 36.0936 40.3492 35.0504C40.5427 34.9691 40.749 34.7252 40.7748 34.5897C40.749 34.5897 40.5298 34.3729 40.375 34.2916C38.9952 33.6819 37.6154 33.0994 36.2227 32.5303L35.578 32.2593C34.7011 31.8935 33.8113 31.5277 32.9216 31.189C32.7797 31.1348 32.6508 31.1077 32.5605 31.1077L32.5347 31.0942Z" fill="#19FFDB"/>
<path d="M14.6619 27.0838H6.92474V28.4387H14.6619V27.0838Z" fill="#19FFDB"/>
<path d="M14.6619 31.1484H6.92474V32.5032H14.6619V31.1484Z" fill="#19FFDB"/>
<path d="M14.6619 35.213H6.92474V36.5678H14.6619V35.213Z" fill="#19FFDB"/>
<path d="M14.6619 37.9227H6.92474V39.2775H14.6619V37.9227Z" fill="#19FFDB"/>
<path d="M14.6619 43.3421H6.92474V44.697H14.6619V43.3421Z" fill="#19FFDB"/>
<path d="M64.3086 27.0838H56.5715V28.4387H64.3086V27.0838Z" fill="#19FFDB"/>
<path d="M64.3086 31.1484H56.5715V32.5032H64.3086V31.1484Z" fill="#19FFDB"/>
<path d="M64.3086 35.213H56.5715V36.5678H64.3086V35.213Z" fill="#19FFDB"/>
<path d="M64.3086 37.9227H56.5715V39.2775H64.3086V37.9227Z" fill="#19FFDB"/>
<path d="M66.8877 54.8584H59.1505V56.2133H66.8877V54.8584Z" fill="#19FFDB"/>
<path d="M53.9924 56.8907C53.2832 56.8907 52.7029 56.281 52.7029 55.5359C52.7029 54.7907 53.2832 54.181 53.9924 54.181C54.7016 54.181 55.2819 54.7907 55.2819 55.5359C55.2819 56.281 54.7016 56.8907 53.9924 56.8907Z" fill="#19FFDB"/>
</svg>
