<svg width="73" height="73" viewBox="0 0 73 73" fill="none" xmlns="http://www.w3.org/2000/svg">
<path d="M42.4364 72.1106C44.0628 71.8792 45.7642 71.7695 47.2905 71.2213C51.5192 69.7106 55.6727 68.005 59.8388 66.3603C60.2266 66.2019 60.6145 65.9583 60.9147 65.6659C64.6679 61.9988 68.4086 58.3196 72.1493 54.6404C72.2995 54.4942 72.4246 54.3358 72.5997 54.1409C67.5579 51.3022 62.9665 51.8627 58.6503 55.7977C59.0256 53.154 59.3759 50.7175 59.7262 48.3052C55.36 46.8677 51.4691 48.8047 50.168 53.0078C49.4674 55.2495 48.7918 57.5033 48.1162 59.7572C47.9911 60.1592 47.816 60.3785 47.3531 60.4638C46.1771 60.6709 45.0261 60.9755 43.8626 61.2069C43.5874 61.2679 43.2871 61.28 42.9994 61.2435C41.7233 61.0851 40.4472 60.8902 39.1586 60.7074C38.0952 60.5613 37.0317 60.4029 35.9808 60.2445C36.2311 59.9765 36.4813 59.8425 36.7315 59.7206C38.3329 58.9287 39.9593 58.1612 41.5481 57.3328C43.2746 56.4434 44.2379 54.9937 44.338 53.1053C44.5507 49.1459 40.4597 46.5509 36.769 48.2931C30.9891 51.0342 25.2216 53.7997 19.4417 56.5409C19.0038 56.748 18.4783 56.8698 17.9904 56.8698C12.2855 56.8942 6.58064 56.882 0.875751 56.882H0V59.1358C0.225193 59.1602 0.412854 59.1846 0.600515 59.1846C6.66822 59.1846 12.7484 59.1846 18.8161 59.1846C19.1664 59.1846 19.5292 59.0749 19.8545 58.9166C21.9438 57.9419 24.0081 56.9429 26.0849 55.9561C29.9757 54.0921 33.8665 52.2281 37.7574 50.3763C39.3337 49.621 41.0102 50.1692 41.7108 51.6434C42.3863 53.0566 41.8234 54.6282 40.3221 55.3713C38.0076 56.5287 35.6681 57.6617 33.3536 58.8191C33.1284 58.9287 32.8156 59.1724 32.8031 59.3673C32.7406 60.281 32.7781 61.2069 32.7781 62.1328C35.6055 62.5227 38.3454 62.9369 41.0977 63.2902C42.0986 63.4242 43.162 63.6679 44.1253 63.473C47.9661 62.7298 51.7819 61.8526 55.6102 60.9877C55.998 60.9024 56.3858 60.7074 56.6861 60.4638C58.325 59.1237 59.9139 57.7104 61.5778 56.3947C63.592 54.7987 65.894 54.3236 68.5087 54.8962C68.3586 55.0668 68.271 55.1764 68.1709 55.2739C65.2559 58.149 62.3409 61.012 59.4134 63.875C59.1632 64.1187 58.8254 64.2892 58.4876 64.4232C55.4225 65.6415 52.3449 66.8354 49.2797 68.0537C47.4782 68.7603 45.7267 69.601 43.7125 69.6741C42.9618 69.6984 42.2112 69.8568 41.4605 69.9421C39.071 70.1979 36.6689 70.6487 34.2669 70.6731C23.1448 70.7462 12.0228 70.7096 0.913283 70.7096H0V73H36.0184C36.1059 72.9635 36.1935 72.9025 36.2811 72.8904C38.3329 72.6345 40.3971 72.4274 42.4489 72.1228L42.4364 72.1106ZM56.2983 55.6515C56.2107 56.2607 56.0981 56.8698 56.048 57.479C55.9855 58.1612 55.5977 58.5998 54.9721 58.7582C53.5709 59.1115 52.1447 59.4039 50.6309 59.7328C50.6809 59.477 50.706 59.3064 50.7685 59.1358C51.3565 57.1866 51.932 55.2251 52.5576 53.2881C53.1956 51.3266 54.9471 50.0961 57.0864 50.1205C56.8112 51.9967 56.561 53.8241 56.2983 55.6515Z" fill="#19FFDB"/>
<path d="M26.2349 34.2462C29.2625 38.23 33.6538 40.5447 37.6697 43.3833C39.8341 41.9092 42.036 40.5325 44.1002 38.9975C50.5933 34.1731 53.9712 27.7527 54.1463 19.7972C54.2214 16.3616 54.1588 12.9139 54.1588 9.46612C54.1588 9.25901 54.1338 9.0519 54.1213 8.80824C50.831 8.52804 47.7659 7.67523 44.9009 6.15237C42.0485 4.62951 39.6965 2.53405 37.6572 0C33.4536 5.28738 27.9864 8.21128 21.2181 8.80824C21.1931 9.01535 21.1681 9.10063 21.1681 9.1981C21.1681 12.9017 21.118 16.6053 21.1931 20.3089C21.3057 25.4745 23.0697 30.0918 26.2349 34.234V34.2462ZM23.5451 10.855C29.0999 9.92907 33.7789 7.51686 37.6697 3.55741C41.548 7.51686 46.2396 9.92907 51.8193 10.855V11.6347C51.8193 14.1565 51.8193 16.6662 51.8193 19.1881C51.7693 26.9242 48.554 33.0644 42.111 37.5965C40.8099 38.5102 39.4838 39.3995 38.1451 40.2645C37.9449 40.3863 37.5571 40.4838 37.407 40.3742C35.1676 38.8148 32.803 37.4015 30.7763 35.6106C26.1098 31.4928 23.7328 26.2542 23.5826 20.114C23.5076 17.0561 23.5701 13.9982 23.5701 10.8672L23.5451 10.855Z" fill="#19FFDB"/>
<path d="M73 12.1951H56.5609V14.3758H73V12.1951Z" fill="#19FFDB"/>
<path d="M18.7661 12.1829H2.37708V14.388H18.7661V12.1829Z" fill="#19FFDB"/>
<path d="M56.5609 20.114H68.2835V17.9332H56.5609V20.114Z" fill="#19FFDB"/>
<path d="M7.09351 20.114H18.7535V17.921H7.09351V20.114Z" fill="#19FFDB"/>
<path d="M56.5735 25.8765H63.5545V23.6714H56.5735V25.8765Z" fill="#19FFDB"/>
<path d="M11.7725 25.8887H18.7534V23.6714H11.7725V25.8887Z" fill="#19FFDB"/>
<path d="M44.7508 28.7273C44.7508 25.7181 44.7383 22.6967 44.7508 19.6876C44.7508 19.1515 44.5882 18.9688 44.0502 19.0053C43.5248 19.0419 42.9868 19.0053 42.3363 19.0053C42.3363 18.0307 42.3988 17.1291 42.3238 16.2398C42.1236 13.9129 40.0968 12.1463 37.7073 12.122C35.1301 12.0976 33.0158 14.1078 32.9532 16.654C32.9282 17.4215 32.9532 18.2012 32.9532 19.0297H30.6512V30.4694H44.7633V28.7151L44.7508 28.7273ZM35.4554 16.0449C35.6555 15.0215 36.7815 14.3514 37.8324 14.4489C38.9709 14.5464 39.9092 15.3992 39.9842 16.5078C40.0343 17.3119 39.9842 18.116 39.9842 18.9931H35.2427C35.3052 17.9941 35.2552 16.9951 35.4429 16.0449H35.4554ZM42.3363 28.2034H32.9908V21.3932H42.3363V28.2034Z" fill="#19FFDB"/>
<path d="M28.2867 14.4124H30.5636V12.1707H25.9471V16.6662H28.2867V14.4124Z" fill="#19FFDB"/>
<path d="M47.1403 16.6662H49.4298V12.1829H44.8134V14.4489H47.1529V16.6662H47.1403Z" fill="#19FFDB"/>
<path d="M37.7698 34.8431C37.1818 34.8431 36.5813 34.2218 35.9933 33.8807C35.9558 33.8563 35.9057 33.8807 35.8181 33.8807C35.4178 34.4411 35.0049 35.0259 34.5295 35.6837C35.5304 36.3538 36.4562 36.9995 37.407 37.6208C37.5196 37.6939 37.7198 37.767 37.7823 37.7183C38.7957 37.0604 39.8091 36.3782 40.8349 35.6837L39.4963 33.8197C38.8958 34.2096 38.3328 34.8553 37.7698 34.8675V34.8431Z" fill="#19FFDB"/>
<path d="M38.7832 23.6836H36.5312V25.8765H38.7832V23.6836Z" fill="#19FFDB"/>
</svg>
