<svg xmlns="http://www.w3.org/2000/svg" xmlns:xlink="http://www.w3.org/1999/xlink" width="64" height="64" viewBox="0 0 64 64"><defs><clipPath id="clip-path"><rect id="Rectangle_2113" data-name="Rectangle 2113" width="64" height="64" transform="translate(111 3457)" fill="#fff"></rect></clipPath></defs><g id="Mask_Group_10" data-name="Mask Group 10" transform="translate(-111 -3457)" clip-path="url(#clip-path)"><g id="renew_team" transform="translate(92.654 3438.654)"><g id="renew_team_1_"><path id="Path_2392" data-name="Path 2392" d="M41.955,67.127V59.263A8.4,8.4,0,0,1,48.407,51.1a4.783,4.783,0,1,1,3.881,0,8.39,8.39,0,0,1,6.446,8.162v7.864m6.3-6.293v-7.86a8.394,8.394,0,0,0-6.448-8.162,4.778,4.778,0,1,0-6.329-2.463m-3.814,0a4.785,4.785,0,1,0-6.329,2.463,8.392,8.392,0,0,0-6.448,8.162v7.86M50.346,23.075a27.27,27.27,0,0,0-6.293,53.8m6.293.736a27.274,27.274,0,0,0,6.293-53.811" fill="none" stroke="#19FFDB" stroke-linejoin="round" stroke-miterlimit="10" stroke-width="1.51"></path><path id="Path_2393" data-name="Path 2393" d="M46.15,18.88l4.2,4.2-4.2,4.2m8.385,46.159-4.189,4.187,4.2,4.2" fill="none" stroke="#00539a" stroke-miterlimit="10" stroke-width="1.51"></path></g></g></g></svg>