<?xml version="1.0" encoding="UTF-8" standalone="no"?>
<svg
   xmlns:dc="http://purl.org/dc/elements/1.1/"
   xmlns:cc="http://creativecommons.org/ns#"
   xmlns:rdf="http://www.w3.org/1999/02/22-rdf-syntax-ns#"
   xmlns:svg="http://www.w3.org/2000/svg"
   xmlns="http://www.w3.org/2000/svg"
   viewBox="0 0 177.33333 177.33333"
   height="177.33333"
   width="177.33333"
   xml:space="preserve"
   id="svg2"
   version="1.1"><metadata
     id="metadata8"><rdf:RDF><cc:Work
         rdf:about=""><dc:format>image/svg+xml</dc:format><dc:type
           rdf:resource="http://purl.org/dc/dcmitype/StillImage" /></cc:Work></rdf:RDF></metadata><defs
     id="defs6"><clipPath
       id="clipPath18"
       clipPathUnits="userSpaceOnUse"><path
         id="path16"
         d="M 0,133 H 133 V 0 H 0 Z" /></clipPath></defs><g
     transform="matrix(1.3333333,0,0,-1.3333333,0,177.33333)"
     id="g10"><g
       id="g12"><g
         clip-path="url(#clipPath18)"
         id="g14"><g
           transform="translate(128.3682,62.1475)"
           id="g20"><path
             id="path22"
             style="fill:#176b97;fill-opacity:1;fill-rule:evenodd;stroke:none"
             d="m 0,0 c -3.35,-3.717 -10.081,-3.717 -13.43,0 -1.143,1.269 -1.652,2.855 -1.472,4.588 0.243,2.339 1.192,4.329 2.659,5.691 0.023,-0.392 0.021,-0.866 -0.036,-1.452 l -0.239,-2.455 2.17,1.172 c 2.285,1.234 4.98,1.234 7.264,0 l 2.17,-1.172 -0.238,2.455 C -1.21,9.413 -1.211,9.887 -1.188,10.279 0.279,8.917 1.228,6.927 1.471,4.588 1.651,2.855 1.144,1.269 0,0 M 4.083,4.859 C 3.68,8.752 1.705,11.942 -1.334,13.613 l -0.925,0.509 -0.695,-0.795 c -0.088,-0.101 -0.69,-0.851 -0.841,-2.647 -1.786,0.553 -4.055,0.553 -5.84,0 -0.151,1.796 -0.753,2.546 -0.841,2.647 l -0.696,0.795 -0.925,-0.509 c -3.039,-1.67 -5.013,-4.861 -5.417,-8.754 -0.256,-2.458 0.502,-4.807 2.133,-6.617 4.398,-4.878 12.934,-4.878 17.331,0 1.632,1.81 2.389,4.159 2.133,6.617" /></g><g
           transform="translate(9.8989,76.0625)"
           id="g24"><path
             id="path26"
             style="fill:#000000;fill-opacity:1;fill-rule:evenodd;stroke:none"
             d="m 0,0 c -3.883,0 -9.399,-5.631 -9.399,-10.887 v -6.342 c 0,-0.864 0.702,-1.566 1.566,-1.566 0.866,0 1.567,0.702 1.567,1.566 v 6.342 c 0,3.569 4.141,7.754 6.266,7.754 2.124,0 6.266,-4.185 6.266,-7.754 v -6.342 c 0,-0.864 0.701,-1.566 1.566,-1.566 0.865,0 1.567,0.702 1.567,1.566 v 6.342 C 9.398,-5.631 3.882,0 0,0 m 21.726,0 c -5.183,0 -9.398,-4.216 -9.398,-9.398 0,-5.182 4.215,-9.397 9.398,-9.397 2.919,0 5.623,1.322 7.419,3.629 l -0.005,0.004 c 0.207,0.266 0.336,0.595 0.336,0.958 0,0.865 -0.702,1.566 -1.566,1.566 -0.502,0 -0.945,-0.24 -1.232,-0.607 l -0.005,0.004 c -1.198,-1.538 -3.001,-2.42 -4.947,-2.42 -3.455,0 -6.267,2.809 -6.267,6.263 0,3.454 2.812,6.266 6.267,6.266 1.859,0 3.514,-1.037 4.644,-2.326 l -8.009,-3.989 0.002,-0.005 c -0.515,-0.257 -0.871,-0.782 -0.871,-1.397 0,-0.865 0.702,-1.566 1.567,-1.566 0.251,0 0.484,0.064 0.695,0.17 l 0.002,-0.005 9.63,4.795 c 0.381,0.19 0.668,0.526 0.796,0.932 0.128,0.406 0.085,0.845 -0.118,1.219 C 28.312,-2.082 25.039,0 21.726,0 m 24.24,-15.271 h -2.701 c -3.572,0 -6.265,2.524 -6.265,5.872 v 2.688 h 3.293 c 0.866,0 1.568,0.701 1.568,1.566 0,0.866 -0.702,1.567 -1.568,1.567 H 37 v 2.012 C 37,-0.701 36.297,0 35.432,0 34.568,0 33.866,-0.701 33.866,-1.566 v -7.832 c 0,-5.05 4.128,-9.006 9.398,-9.006 h 2.702 c 0.866,0 1.567,0.701 1.567,1.566 0,0.865 -0.701,1.567 -1.567,1.567 m 17.072,2.376 c -0.479,0 -0.902,-0.219 -1.19,-0.557 l -0.006,0.005 c -1.193,-1.407 -2.935,-2.214 -4.779,-2.214 -3.455,0 -6.266,2.809 -6.266,6.263 0,3.454 2.811,6.266 6.266,6.266 1.442,0 2.849,-0.502 3.963,-1.413 l 0.005,0.005 c 0.27,-0.221 0.61,-0.358 0.987,-0.358 0.865,0 1.566,0.701 1.566,1.566 0,0.489 -0.228,0.92 -0.579,1.208 l 0.004,0.005 C 61.337,-0.752 59.226,0 57.063,0 c -5.182,0 -9.398,-4.215 -9.398,-9.398 0,-5.181 4.216,-9.396 9.398,-9.396 2.718,0 5.284,1.174 7.073,3.219 0.008,0.007 0.016,0.015 0.024,0.023 0.023,0.028 0.049,0.05 0.072,0.077 l -0.005,0.005 c 0.231,0.274 0.377,0.623 0.377,1.009 0,0.865 -0.701,1.566 -1.566,1.566 M 80.15,-13.63 c -1.187,-1.289 -2.848,-2.032 -4.608,-2.032 -3.455,0 -6.265,2.81 -6.265,6.263 0,3.455 2.81,6.266 6.265,6.266 1.076,0 2.131,-0.28 3.061,-0.799 0.014,-0.008 0.025,-0.015 0.04,-0.023 0.284,-0.162 0.554,-0.347 0.812,-0.552 0.277,-0.237 0.498,-0.478 0.694,-0.706 V -13.63 Z M 81.716,0 C 80.965,0 80.337,-0.53 80.186,-1.236 78.779,-0.435 77.177,0 75.542,0 c -5.181,0 -9.398,-4.216 -9.398,-9.398 0,-5.182 4.217,-9.397 9.398,-9.397 1.641,0 3.221,0.436 4.613,1.225 0.027,-0.842 0.715,-1.516 1.561,-1.516 0.867,0 1.567,0.701 1.567,1.566 v 15.954 c 0,0.865 -0.7,1.566 -1.567,1.566 m 17.362,-15.271 h -2.702 c -3.571,0 -6.265,2.524 -6.265,5.872 v 2.688 h 3.295 c 0.865,0 1.566,0.701 1.566,1.566 0,0.866 -0.701,1.567 -1.566,1.567 h -3.295 v 2.012 C 90.111,-0.701 89.41,0 88.544,0 87.679,0 86.978,-0.701 86.978,-1.566 v -7.832 c 0,-5.05 4.128,-9.006 9.397,-9.006 h 2.703 c 0.865,0 1.566,0.701 1.566,1.566 0,0.865 -0.701,1.567 -1.566,1.567" /></g></g></g></g></svg>