<svg width="73" height="73" viewBox="0 0 73 73" fill="none" xmlns="http://www.w3.org/2000/svg">
<mask id="mask0_3_179" style="mask-type:alpha" maskUnits="userSpaceOnUse" x="0" y="0" width="73" height="73">
<path d="M73 0H0V73H73V0Z" fill="#D9D9D9"/>
</mask>
<g mask="url(#mask0_3_179)">
<path d="M25.5502 23.3621H38.6903V25.5521H25.5502V23.3621Z" fill="#19FFDB"/>
<path d="M38.5801 23.3621H43.0702V25.5521H38.5801V23.3621Z" fill="#19FFDB"/>
<path d="M25.5502 32.1222H38.6903V34.3122H25.5502V32.1222Z" fill="#19FFDB"/>
<path d="M38.5217 32.1222H43.0702V34.3122H38.2522L38.5217 32.1222Z" fill="#19FFDB"/>
<path d="M25.5502 40.8822H38.6903V43.0722H25.5502V40.8822Z" fill="#19FFDB"/>
<path d="M38.4048 40.8822H43.0703V43.0722H38.4048V40.8822Z" fill="#19FFDB"/>
<path d="M64.9704 48.5473C63.9996 48.5485 63.0567 48.8717 62.2892 49.4661C61.5218 50.0605 60.973 50.8927 60.7291 51.8323H48.5453V47.4523C49.4163 47.4512 50.2512 47.1048 50.867 46.489C51.4829 45.8732 51.8293 45.0382 51.8304 44.1673V40.8822H58.4004C59.9132 40.8811 61.4093 40.5666 62.7945 39.9584C64.1797 39.3503 65.4238 38.4616 66.4484 37.3487C67.4731 36.2357 68.2559 34.9225 68.7478 33.4919C69.2396 32.0612 69.4295 30.5443 69.3057 29.0365C69.182 27.5288 68.7473 26.0631 68.0287 24.7318C67.3103 23.4004 66.3238 22.2324 65.1315 21.3014C63.939 20.3704 62.5667 19.6965 61.1009 19.3224C59.6352 18.9481 58.1077 18.8817 56.6149 19.1273C55.5438 15.0864 53.2804 11.4619 50.1196 8.72583C46.9589 5.98981 43.0473 4.26922 38.8947 3.78821C34.7419 3.30722 30.5407 4.08812 26.8381 6.02918C23.1357 7.97025 20.1036 10.9815 18.1371 14.6704C17.6895 14.6249 17.2399 14.6021 16.7901 14.6021C13.3051 14.6021 9.96291 15.9865 7.49867 18.4507C5.03442 20.915 3.65002 24.2572 3.65002 27.7422C3.65002 31.2271 5.03442 34.5694 7.49867 37.0336C9.96291 39.4979 13.3051 40.8822 16.7901 40.8822H21.1701V44.1673C21.1711 45.0382 21.5176 45.8732 22.1334 46.489C22.7493 47.1048 23.5843 47.4512 24.4551 47.4523V51.8323H12.2714C12.0049 50.8001 11.3711 49.9005 10.4887 49.3021C9.60641 48.7039 8.53616 48.4479 7.47858 48.5822C6.42101 48.7165 5.44873 49.2319 4.74399 50.0319C4.03926 50.8317 3.65045 51.8613 3.65045 52.9273C3.65045 53.9934 4.03926 55.0229 4.74399 55.8227C5.44873 56.6227 6.42101 57.1381 7.47858 57.2724C8.53616 57.4067 9.60641 57.1507 10.4887 56.5525C11.3711 55.9541 12.0049 55.0545 12.2714 54.0223H25.5501C25.8406 54.0223 26.1191 53.907 26.3244 53.7016C26.5298 53.4962 26.6451 53.2177 26.6451 52.9273V47.4523H28.8351V56.2123H20.0751C19.7847 56.2123 19.5062 56.3277 19.3009 56.533C19.0955 56.7384 18.9801 57.0169 18.9801 57.3073V60.731C17.9479 60.9976 17.0483 61.6313 16.45 62.5137C15.8517 63.396 15.5956 64.4663 15.7301 65.5238C15.8644 66.5815 16.3798 67.5537 17.1797 68.2584C17.9796 68.9632 19.0091 69.3519 20.0751 69.3519C21.1412 69.3519 22.1707 68.9632 22.9706 68.2584C23.7705 67.5537 24.2859 66.5815 24.4202 65.5238C24.5545 64.4663 24.2986 63.396 23.7002 62.5137C23.102 61.6313 22.2024 60.9976 21.1701 60.731V58.4023H29.9301C30.2206 58.4023 30.4992 58.287 30.7044 58.0816C30.9098 57.8762 31.0251 57.5977 31.0251 57.3073V47.4523H35.4053V58.541C34.373 58.8075 33.4734 59.4413 32.8751 60.3237C32.2767 61.206 32.0207 62.2763 32.1551 63.3338C32.2895 64.3915 32.8049 65.3637 33.6047 66.0684C34.4047 66.7732 35.4342 67.1619 36.5003 67.1619C37.5663 67.1619 38.5957 66.7732 39.3957 66.0684C40.1957 65.3637 40.711 64.3915 40.8453 63.3338C40.9797 62.2763 40.7237 61.206 40.1253 60.3237C39.5271 59.4413 38.6275 58.8075 37.5953 58.541V47.4523H41.9753V57.3073C41.9753 57.5977 42.0906 57.8762 42.296 58.0816C42.5014 58.287 42.7799 58.4023 43.0703 58.4023H51.8304V60.731C50.7982 60.9976 49.8986 61.6313 49.3002 62.5137C48.7019 63.396 48.4459 64.4663 48.5802 65.5238C48.7145 66.5815 49.23 67.5537 50.0298 68.2584C50.8298 68.9632 51.8592 69.3519 52.9254 69.3519C53.9914 69.3519 55.0209 68.9632 55.8208 68.2584C56.6207 67.5537 57.1362 66.5815 57.2705 65.5238C57.4048 64.4663 57.1488 63.396 56.5504 62.5137C55.9521 61.6313 55.0526 60.9976 54.0204 60.731V57.3073C54.0204 57.0169 53.9049 56.7384 53.6997 56.533C53.4943 56.3277 53.2158 56.2123 52.9254 56.2123H44.1653V47.4523H46.3553V52.9273C46.3553 53.2177 46.4706 53.4962 46.676 53.7016C46.8814 53.907 47.1598 54.0223 47.4503 54.0223H60.7291C60.9339 54.8155 61.357 55.5354 61.9504 56.1001C62.5437 56.6649 63.2837 57.0519 64.086 57.2172C64.8884 57.3825 65.721 57.3196 66.4893 57.0354C67.2576 56.7512 67.9309 56.2573 68.4325 55.6097C68.9343 54.9621 69.2443 54.1868 69.3274 53.3718C69.4105 52.5568 69.2634 51.7349 68.9029 50.9994C68.5423 50.2638 67.9826 49.644 67.2875 49.2106C66.5923 48.7771 65.7896 48.5473 64.9704 48.5473ZM8.03005 55.1173C7.5969 55.1173 7.17349 54.9888 6.81335 54.7483C6.4532 54.5076 6.1725 54.1655 6.00674 53.7654C5.84099 53.3652 5.79761 52.9249 5.88212 52.5C5.96662 52.0753 6.1752 51.685 6.48148 51.3787C6.78776 51.0725 7.17798 50.8638 7.6028 50.7794C8.02763 50.6949 8.46796 50.7383 8.86814 50.904C9.26831 51.0697 9.61034 51.3505 9.85099 51.7106C10.0916 52.0708 10.2201 52.4942 10.2201 52.9273C10.2194 53.5079 9.98842 54.0645 9.57787 54.4752C9.1673 54.8857 8.61067 55.1166 8.03005 55.1173ZM22.2651 64.9724C22.2651 65.4056 22.1367 65.829 21.896 66.1891C21.6555 66.5492 21.3133 66.8299 20.9132 66.9958C20.513 67.1615 20.0727 67.2048 19.6479 67.1203C19.2231 67.0358 18.8328 66.8272 18.5266 66.521C18.2203 66.2147 18.0117 65.8245 17.9272 65.3996C17.8427 64.9749 17.8861 64.5344 18.0518 64.1343C18.2175 63.7341 18.4982 63.3921 18.8585 63.1514C19.2186 62.9108 19.642 62.7824 20.0751 62.7824C20.6557 62.783 21.2124 63.014 21.623 63.4246C22.0335 63.8351 22.2644 64.3917 22.2651 64.9724ZM38.6903 62.7824C38.6903 63.2156 38.5618 63.639 38.3211 63.9991C38.0805 64.3592 37.7385 64.6399 37.3383 64.8056C36.9381 64.9715 36.4978 65.0148 36.073 64.9303C35.6481 64.8458 35.2579 64.6372 34.9517 64.331C34.6453 64.0247 34.4368 63.6345 34.3522 63.2096C34.2678 62.7849 34.3111 62.3444 34.477 61.9443C34.6427 61.5441 34.9233 61.2021 35.2835 60.9614C35.6437 60.7208 36.0671 60.5923 36.5003 60.5923C37.0809 60.593 37.6375 60.824 38.0481 61.2346C38.4586 61.6451 38.6895 62.2017 38.6903 62.7824ZM55.1154 64.9724C55.1154 65.4056 54.9869 65.829 54.7463 66.1891C54.5056 66.5492 54.1636 66.8299 53.7634 66.9958C53.3633 67.1615 52.923 67.2048 52.4981 67.1203C52.0732 67.0358 51.6831 66.8272 51.3768 66.521C51.0705 66.2147 50.8619 65.8245 50.7774 65.3996C50.6929 64.9749 50.7362 64.5344 50.9021 64.1343C51.0678 63.7341 51.3485 63.3921 51.7086 63.1514C52.0687 62.9108 52.4923 62.7824 52.9254 62.7824C53.506 62.783 54.0626 63.014 54.4731 63.4246C54.8837 63.8351 55.1147 64.3917 55.1154 64.9724ZM23.3601 26.6472V22.2671C23.3605 21.9768 23.476 21.6985 23.6812 21.4931C23.8865 21.2879 24.1649 21.1724 24.4551 21.1721H48.5453C48.8357 21.1724 49.1139 21.2879 49.3192 21.4931C49.5246 21.6985 49.64 21.9768 49.6403 22.2671V26.6472C49.64 26.9375 49.5246 27.2157 49.3192 27.4211C49.1139 27.6264 48.8357 27.7418 48.5453 27.7422H24.4551C24.1649 27.7418 23.8865 27.6264 23.6812 27.4211C23.476 27.2157 23.3605 26.9375 23.3601 26.6472ZM23.3601 35.4072V31.0272C23.3605 30.7369 23.476 30.4585 23.6812 30.2533C23.8865 30.048 24.1649 29.9324 24.4551 29.9322H48.5453C48.8357 29.9324 49.1139 30.048 49.3192 30.2533C49.5246 30.4585 49.64 30.7369 49.6403 31.0272V35.4072C49.64 35.6975 49.5246 35.9759 49.3192 36.1811C49.1139 36.3864 48.8357 36.5018 48.5453 36.5022H24.4551C24.1649 36.5018 23.8865 36.3864 23.6812 36.1811C23.476 35.9759 23.3605 35.6975 23.3601 35.4072ZM5.84004 27.7422C5.84333 24.839 6.99806 22.0557 9.05088 20.003C11.1037 17.9501 13.8869 16.7954 16.7901 16.7921C17.3908 16.7919 17.9904 16.8406 18.5831 16.9377C18.8161 16.9763 19.0553 16.9386 19.265 16.8299C19.4747 16.7214 19.6436 16.5479 19.7466 16.3355C21.4422 12.8398 24.1888 9.9621 27.6017 8.10547C31.0146 6.24884 34.9227 5.50627 38.7787 5.98178C42.6347 6.45729 46.2454 8.12706 49.1049 10.7572C51.9645 13.3873 53.9296 16.8461 54.7252 20.6489C54.7557 20.7955 54.8158 20.9343 54.9021 21.0567C54.9884 21.1791 55.0987 21.2825 55.2265 21.3607C55.3542 21.4386 55.4966 21.4897 55.6449 21.5105C55.7931 21.5315 55.9441 21.5216 56.0884 21.4818C57.2929 21.1527 58.5538 21.085 59.7867 21.283C61.0195 21.481 62.1958 21.9403 63.2365 22.6301C64.2774 23.3198 65.1587 24.2242 65.8214 25.2825C66.4843 26.3406 66.9132 27.5283 67.0794 28.7659C67.2456 30.0034 67.1454 31.2621 66.7854 32.4577C66.4254 33.6534 65.8139 34.7582 64.992 35.6982C64.1702 36.6382 63.1568 37.3917 62.02 37.9081C60.8831 38.4244 59.6491 38.6918 58.4004 38.6922H51.6421C51.4985 38.2883 51.2774 37.9163 50.9911 37.5972C51.5319 36.996 51.8309 36.2158 51.8304 35.4072V31.0272C51.8309 30.2186 51.5319 29.4383 50.9911 28.8372C51.5319 28.2359 51.8309 27.4558 51.8304 26.6472V22.2671C51.8293 21.3962 51.4829 20.5612 50.867 19.9454C50.2512 19.3295 49.4163 18.9832 48.5453 18.9821H24.4551C23.5843 18.9832 22.7493 19.3295 22.1334 19.9454C21.5176 20.5612 21.1711 21.3962 21.1701 22.2671V26.6472C21.1695 27.4558 21.4686 28.2359 22.0093 28.8372C21.4686 29.4383 21.1695 30.2186 21.1701 31.0272V35.4072C21.1695 36.2158 21.4686 36.996 22.0093 37.5972C21.723 37.9163 21.5019 38.2883 21.3585 38.6922H16.7901C13.8869 38.6889 11.1037 37.5342 9.05088 35.4814C6.99806 33.4285 5.84333 30.6453 5.84004 27.7422ZM23.3601 44.1673V39.7872C23.3605 39.4969 23.476 39.2185 23.6812 39.0133C23.8865 38.808 24.1649 38.6926 24.4551 38.6922H48.5453C48.8357 38.6926 49.1139 38.808 49.3192 39.0133C49.5246 39.2185 49.64 39.4969 49.6403 39.7872V44.1673C49.64 44.4576 49.5246 44.7359 49.3192 44.9412C49.1139 45.1465 48.8357 45.2619 48.5453 45.2623H24.4551C24.1649 45.2619 23.8865 45.1465 23.6812 44.9412C23.476 44.7359 23.3605 44.4576 23.3601 44.1673ZM64.9704 55.1173C64.5373 55.1173 64.1139 54.9888 63.7537 54.7483C63.3936 54.5076 63.1129 54.1655 62.9471 53.7654C62.7814 53.3652 62.7379 52.9249 62.8225 52.5C62.907 52.0753 63.1156 51.685 63.4218 51.3787C63.7282 51.0725 64.1184 50.8638 64.5432 50.7794C64.968 50.6949 65.4084 50.7383 65.8086 50.904C66.2087 51.0697 66.5507 51.3505 66.7914 51.7106C67.032 52.0708 67.1604 52.4942 67.1604 52.9273C67.1598 53.5079 66.9287 54.0645 66.5182 54.4752C66.1077 54.8857 65.551 55.1166 64.9704 55.1173Z" fill="#19FFDB"/>
</g>
</svg>
