<svg width="55" height="64" viewBox="0 0 55 64" fill="none" xmlns="http://www.w3.org/2000/svg">
<path d="M43.4266 64C43.2806 64 43.1346 63.9729 42.9993 63.9208L27.5 57.8375L12.0008 63.9208C11.7035 64.0375 11.3504 64.0229 11.069 63.8875C10.7903 63.75 10.6178 63.5104 10.6178 63.25V38.6104C4.15953 34.6583 0 28.4958 0 21.5833C0 9.68333 12.3379 0 27.5 0C42.6648 0 55 9.68125 55 21.5833C55 28.4937 50.8405 34.6562 44.3822 38.6104V63.25C44.3822 63.5104 44.2097 63.75 43.9283 63.8896C43.777 63.9625 43.5992 64 43.4266 64ZM27.5 56.25C27.646 56.25 27.792 56.2771 27.9273 56.3292L42.471 62.0375V39.6812C38.1602 41.8854 33.0159 43.1687 27.5 43.1687C21.9815 43.1687 16.8398 41.8854 12.529 39.6812V62.0375L27.0726 56.3292C27.208 56.275 27.354 56.25 27.5 56.25ZM27.5 1.50001C13.3917 1.50001 1.91121 10.5104 1.91121 21.5833C1.91121 32.6562 13.3917 41.6667 27.5 41.6667C41.6083 41.6667 53.0888 32.6583 53.0888 21.5833C53.0888 10.5083 41.6083 1.50001 27.5 1.50001ZM35.4633 32.75C35.2536 32.75 35.0466 32.6958 34.8714 32.5896L27.5 28.0354L20.1286 32.5896C19.8074 32.7896 19.3589 32.8041 19.0164 32.6291C18.674 32.4541 18.5121 32.125 18.613 31.8125L21.0816 24.3479L13.6677 20.1062C13.3333 19.9145 13.1926 19.577 13.3227 19.2688C13.4474 18.9583 13.8137 18.75 14.2278 18.75H23.5025L26.5895 10.9438C26.839 10.3167 28.1662 10.3167 28.4158 10.9438L31.5029 18.75H40.7722C41.1863 18.75 41.5526 18.9583 41.6827 19.2688C41.8101 19.577 41.6694 19.9166 41.3349 20.1062L33.9184 24.3479L36.3897 31.8125C36.4932 32.1229 36.3313 32.4521 35.9889 32.6291C35.827 32.7083 35.6438 32.75 35.4633 32.75ZM17.161 20.25L22.73 23.4354C23.0485 23.6166 23.1919 23.9312 23.0937 24.2291L21.1719 30.0333L26.908 26.4916C27.2558 26.275 27.7415 26.275 28.0893 26.4916L33.8229 30.0333L31.901 24.2291C31.8028 23.9312 31.9488 23.6166 32.2647 23.4354L37.8364 20.25H30.7941C30.3747 20.25 30.0058 20.0354 29.881 19.7229L27.5 13.6979L25.1189 19.7229C24.9942 20.0354 24.6253 20.25 24.2059 20.25H17.161Z" fill="#19FFDB"/>
</svg>
